<?xml version="1.0" encoding="UTF-8"?>
<svg id="Layer_2" data-name="Layer 2" xmlns="http://www.w3.org/2000/svg" viewBox="0 0 153.07 73.36">
  <defs>
    <style>
      .cls-1 {
        letter-spacing: -.02em;
      }

      .cls-2 {
        letter-spacing: 1.07em;
      }

      .cls-3 {
        letter-spacing: .01em;
      }

      .cls-4 {
        letter-spacing: .01em;
      }

      .cls-5 {
        letter-spacing: .02em;
      }

      .cls-6 {
        letter-spacing: -.1em;
      }

      .cls-7 {
        fill: #333;
      }

      .cls-8 {
        isolation: isolate;
      }

      .cls-8, .cls-9 {
        font-size: 3px;
      }

      .cls-8, .cls-9, .cls-10, .cls-11, .cls-12, .cls-13, .cls-14 {
        fill: #fff;
      }

      .cls-15 {
        letter-spacing: -.06em;
      }

      .cls-9, .cls-12, .cls-13, .cls-14, .cls-16, .cls-17 {
        font-family: Arial-BoldMT, Arial;
        font-weight: 700;
      }

      .cls-18 {
        letter-spacing: -.05em;
      }

      .cls-19 {
        letter-spacing: -.02em;
      }

      .cls-20 {
        letter-spacing: -.02em;
      }

      .cls-21 {
        letter-spacing: -.07em;
      }

      .cls-22 {
        letter-spacing: .03em;
      }

      .cls-23 {
        letter-spacing: -.1em;
      }

      .cls-24 {
        fill: #b81e44;
      }

      .cls-25 {
        letter-spacing: .33em;
      }

      .cls-25, .cls-11, .cls-26 {
        font-family: ArialMT, Arial;
      }

      .cls-27, .cls-28 {
        fill: none;
      }

      .cls-29 {
        letter-spacing: -.05em;
      }

      .cls-30 {
        letter-spacing: .98em;
      }

      .cls-31 {
        letter-spacing: -.06em;
      }

      .cls-32 {
        letter-spacing: -.07em;
      }

      .cls-11, .cls-14 {
        font-size: 3.5px;
      }

      .cls-33 {
        font-family: KozGoPr6N-Medium-90ms-RKSJ-H, 'Kozuka Gothic Pr6N';
        font-weight: 500;
      }

      .cls-34 {
        fill: #6cb144;
      }

      .cls-35 {
        letter-spacing: -.07em;
      }

      .cls-36 {
        letter-spacing: .02em;
      }

      .cls-37 {
        letter-spacing: 0em;
      }

      .cls-38 {
        letter-spacing: .01em;
      }

      .cls-39 {
        letter-spacing: 1.07em;
      }

      .cls-40 {
        fill: #504ea1;
      }

      .cls-41 {
        letter-spacing: -.06em;
      }

      .cls-42 {
        letter-spacing: 0em;
      }

      .cls-43 {
        letter-spacing: 0em;
      }

      .cls-44 {
        letter-spacing: -.09em;
      }

      .cls-45 {
        fill: #d9ac28;
      }

      .cls-12 {
        font-size: 2.5px;
      }

      .cls-12, .cls-13 {
        letter-spacing: -.05em;
      }

      .cls-46 {
        fill: #08948b;
      }

      .cls-47 {
        letter-spacing: 0em;
      }

      .cls-48 {
        letter-spacing: -.02em;
      }

      .cls-13 {
        font-size: 5px;
      }

      .cls-49 {
        letter-spacing: -.04em;
      }

      .cls-50 {
        letter-spacing: -.04em;
      }

      .cls-16 {
        letter-spacing: 2.61em;
      }

      .cls-51 {
        letter-spacing: -.07em;
      }

      .cls-28 {
        stroke: #fff;
        stroke-miterlimit: 10;
        stroke-width: .25px;
      }

      .cls-52 {
        letter-spacing: .02em;
      }
    </style>
  </defs>
  <g id="Layer_1-2" data-name="Layer 1">
    <rect class="cls-7" x="0" y="5.33" width="153.07" height="68.03" rx="3.33" ry="3.33"/>
    <g>
      <path id="path24" class="cls-10" d="M32.82,12.98l-.21-1.11-.49,1.11h.71ZM40.58,15.79h-1.17l-.16-3.53-1.52,3.53h-.78l-.65-3.19-1.01,3.19h-1.99l-.3-1.7h-1.35l-.77,1.7h-1.22l2.51-5.7h1.44l.77,4.61,1.5-4.61h1.16l.57,3.12,1.33-3.12h1.41l.25,5.7"/>
      <path id="path26" class="cls-10" d="M43.93,15.79l.2-1.22h-2.04l.16-1.01h1.78l.2-1.22h-1.8l.16-1.01h2.04l.2-1.22h-3.24l-.91,5.7h3.27"/>
      <path id="path28" class="cls-10" d="M59.14,10.09h-1.37l-1.16,1.86-.73-1.86h-1.34l1.38,3.01-.42,2.69h1.17l.36-2.38,2.11-3.32"/>
      <path id="path30" class="cls-10" d="M52.19,14.7c.62.28,1.38-.27,1.69-1.21.32-.95.07-1.94-.55-2.22-.62-.28-1.38.27-1.69,1.21-.32.95-.07,1.94.55,2.22h0ZM50.42,12.45c.36-1.58,1.71-2.61,3.01-2.31,1.3.3,2.05,1.82,1.69,3.4-.36,1.58-1.71,2.61-3.01,2.31-1.3-.3-2.06-1.82-1.69-3.4"/>
      <path id="path32" class="cls-10" d="M27.15,10.6c-1.12.69-1.65,1.74-1.51,3.17.17,1.66,2.32,2.71,4.14,1.65.16-.09.1-.08.16-.13l.36-2.32h-2.17l-.17,1.07h.91l-.1.57c-.52.21-1.4.13-1.78-.55-.24-.43-.46-1.38.55-2.26.82-.72,2.24-.85,3.06-.47,0,0,.1-.6.18-1.16-1.57-.55-2.8-.09-3.62.42"/>
      <path id="path34" class="cls-10" d="M46.6,10.12l-.9,5.66h2.63c1.08,0,2.67-1.6,1.23-2.9,1.48-1.54.01-2.74-.77-2.75-.63-.01-2.19,0-2.19,0h.01ZM47.25,13.54h.98c.93,0,.9,1.14-.13,1.14h-1.03l.18-1.14h0ZM47.61,11.32h.76c.83,0,.66,1.06-.13,1.06h-.81l.18-1.06"/>
      <path id="path36" class="cls-10" d="M57.73,16.31h-.22l.19-.79h-.32l.04-.17h.86l-.04.17h-.32l-.19.79"/>
      <path id="path38" class="cls-10" d="M59.2,16.31h-.21l.19-.8h0l-.38.8h-.22v-.8h0l-.19.8h-.21l.22-.96h.32v.75h.02l.37-.75h.32l-.22.96"/>
    </g>
    <g id="g4583">
      <path id="path4572" class="cls-10" d="M61.25,13.12v-3.19h19.24v6.38h-9.19c-9.5,0-9.24,0-9.17-.06,0,0,.02-.08.03-.15,0-.07.03-.28.05-.47s.05-.35.05-.38c0-.08.04-.09.11-.03.09.07.24.14.36.17.08.02.15.03.33.02.21-.01.23-.02.39-.09.09-.04.19-.09.21-.11.05-.04.15-.13.18-.15.05-.03.2-.26.27-.39.11-.22.12-.26.17-.51.02-.1.03-.32,0-.45-.03-.23-.15-.49-.3-.65-.06-.07-.12-.12-.12-.12s-.05-.02-.09-.05-.09-.05-.1-.05-.03,0-.05-.02c-.14-.07-.47-.09-.69-.04-.21.05-.32.09-.39.14-.09.07-.27.08-.47.01-.19-.06-.2-.06-.23,0-.02.04-.07.35-.1.62,0,.04-.01.1-.02.13,0,.03-.03.21-.05.41-.02.2-.05.39-.06.43,0,.04-.02.08-.02.1,0,.14-.1.82-.16,1.25-.01.07-.01.14,0,.16,0,.02,0,.04,0,.05-.01,0-.02.03-.02.06s0,.08-.01.11c0,.05-.02.06-.07.06h-.06v-3.19ZM66.15,15.38c.23-.06.32-.09.39-.14.04-.03.08-.05.09-.05.02,0,.05-.02.25-.22.08-.08.14-.14.14-.15s.02-.05.05-.09c.05-.08.09-.16.1-.2,0,0,.01-.04.03-.07.01-.03.03-.09.04-.13,0-.04.02-.11.04-.15.03-.1.03-.52,0-.63-.04-.17-.15-.36-.27-.48-.05-.05-.1-.09-.1-.09s-.07-.03-.13-.07c-.07-.04-.13-.07-.15-.07-.01,0-.05,0-.08-.02-.16-.07-.52-.06-.8.01-.34.09-.42.14-.67.39-.13.13-.3.4-.3.48,0,.02,0,.04-.01.04-.02,0-.11.37-.11.47,0,.03,0,.07,0,.09,0,.01,0,.1,0,.18.01.17.05.31.1.38.02.02.04.07.06.11.06.13.34.36.44.36.02,0,.03,0,.03.01s.04.02.09.04c.05.01.1.03.13.04.02,0,.15.01.27.02.17,0,.26,0,.37-.03h0ZM65.79,14.93c-.17-.02-.27-.09-.32-.21-.09-.23-.1-.44-.02-.82,0-.02,0-.06.01-.09,0-.05.02-.08.1-.24.06-.13.22-.28.3-.3.04,0,.1-.03.14-.04.05-.01.09-.01.11,0,.02.01.05.01.06,0,.02,0,.05,0,.07.02.02.02.06.03.07.03s.03,0,.03.02.02.03.04.04c.05.02.11.16.13.32.05.34-.08.92-.24,1.09-.08.08-.2.16-.3.18-.05.01-.1.02-.1.02,0,0-.05,0-.11-.01h0ZM69.07,15.38c.12-.02.33-.11.46-.2.08-.05.2-.16.2-.18,0,0,.03-.05.07-.1.04-.05.07-.1.07-.12s.01-.05.03-.08c.02-.03.04-.09.04-.13,0-.04.01-.08.02-.1,0-.02-.06-.03-.36-.03-.36,0-.36,0-.39.04-.02.02-.02.05-.02.05.02.02-.09.21-.16.28-.07.08-.29.15-.38.12-.11-.04-.13-.06-.19-.15-.05-.08-.06-.12-.08-.25,0-.09-.02-.18-.02-.21,0-.1.03-.35.04-.38,0-.02.02-.05.02-.07,0-.05.05-.22.07-.27,0-.02.02-.04.02-.05,0-.03.09-.15.14-.21.1-.09.31-.13.44-.08.13.05.17.12.21.33,0,.03.03.06.05.07.05.02.39.04.47.02.03,0,.07,0,.09,0,.04.02.14,0,.14-.03,0,0,0-.03.01-.05,0-.02,0-.09-.02-.17-.06-.24-.1-.32-.27-.45-.08-.07-.27-.16-.33-.17-.02,0-.08-.01-.13-.02-.16-.03-.33-.04-.48-.02-.16.02-.46.13-.51.18-.02.02-.06.04-.09.06s-.06.04-.07.05c0,.01-.03.03-.04.04-.04.02-.23.27-.29.37-.08.14-.18.44-.17.54,0,.02,0,.05-.02.07-.01.02-.02.13-.02.27,0,.26.04.41.13.55.03.04.05.09.05.1s.01.03.03.05.04.04.06.06c.04.06.17.15.29.21.06.03.12.05.13.06.01,0,.08.02.14.02.06,0,.12,0,.13.01.01.01.33,0,.46-.03h0ZM74.45,15.35c.21-.05.32-.09.36-.14.01-.02.04-.03.05-.03.07,0,.38-.41.34-.44,0,0-.15-.01-.32-.01-.29,0-.31,0-.34.04-.11.11-.18.14-.38.15-.13.01-.2,0-.21,0-.01-.01-.03-.02-.05-.02s-.06-.03-.09-.06c-.05-.05-.07-.09-.09-.2-.03-.11-.03-.15-.01-.18.01-.02.02-.06,0-.09,0-.03,0-.06,0-.08.02-.02.33-.03,1.38-.03.05,0,.1-.01.12-.02s.05-.03.07-.04c.03-.01.05-.03.05-.05s.02-.04.04-.05c.04-.03.04-.04.05-.29,0-.25,0-.27-.05-.44-.03-.1-.07-.19-.09-.21-.02-.02-.03-.04-.03-.05,0-.03-.18-.2-.21-.2-.01,0-.03-.01-.03-.03s-.03-.03-.05-.03-.04,0-.04-.02-.02-.02-.04-.03c-.02,0-.08-.02-.12-.03-.19-.05-.41-.06-.58-.03-.23.04-.46.12-.49.17,0,0-.04.03-.07.05-.13.06-.39.36-.47.54-.02.04-.03.08-.04.1s-.02.06-.03.09c-.06.16-.12.55-.11.77,0,.2.11.54.19.62.02.02.04.05.04.06s.01.02.03.02.03,0,.03.02.02.03.05.04c.13.07.24.12.27.12.02,0,.05,0,.07.02.02,0,.09.02.16.03.07,0,.13.01.14.02.02.02.34-.02.5-.06h0ZM73.79,13.69c.01-.08.1-.29.16-.36.04-.04.17-.1.29-.11.14-.02.29.02.35.08.06.06.12.28.1.37-.02.1-.06.11-.52.11h-.39s.01-.09.01-.09ZM76.99,15.36c.11-.01.22-.03.23-.04.02-.01.03-.05.04-.13,0-.06.02-.15.02-.2v-.09s-.16,0-.16,0c-.21,0-.28-.03-.31-.13-.03-.09-.02-.21.05-.74.03-.22.06-.43.06-.46,0-.03,0-.07.02-.08,0-.01.01-.07.02-.11s.02-.09.03-.1c.01,0,.13-.01.27-.01.14,0,.26-.01.27-.02.02-.02.08-.43.06-.45,0,0-.13,0-.28,0-.27,0-.28,0-.27-.06,0,0,0-.05.01-.1,0-.04.01-.11.02-.14,0-.03.01-.1.02-.14,0-.04.01-.11.02-.15.01-.06,0-.07-.03-.06-.12.03-.26.05-.43.08-.12.02-.2.05-.23.07-.04.04-.07.13-.08.26,0,.05-.02.1-.03.11-.01.01-.03.04-.03.05-.02.04-.2.09-.34.09-.07,0-.13,0-.13.02-.01.02-.06.35-.06.42,0,.04,0,.04.24.04.13,0,.24,0,.25,0,0,0,0,.13-.03.28-.02.15-.03.3-.03.33,0,.03,0,.07-.01.08s-.02.05-.02.08,0,.08-.01.12c-.02.12-.06.48-.06.55,0,.04,0,.09,0,.1,0,.21.07.41.18.48.15.09.36.11.75.07h0ZM71.07,15.3s.05-.28.07-.44c.07-.53.09-.64.13-.53,0,.03.03.05.04.05s.03.03.05.07.05.09.07.12c.02.03.06.09.07.12.02.04.04.07.04.07.02,0,.07.1.07.13,0,0,.02.04.05.08.03.03.05.07.05.09s.01.04.02.05.05.07.07.12c.04.09.05.09.14.1.05,0,.2,0,.32,0,.12,0,.27,0,.33,0,.1,0,.1,0,.09-.05,0-.02-.03-.06-.05-.08-.03-.04-.1-.14-.15-.21-.02-.03-.05-.07-.07-.09-.02-.02-.05-.07-.06-.1s-.03-.05-.04-.05-.03-.03-.05-.06c-.02-.03-.05-.08-.07-.1s-.06-.08-.09-.13-.07-.11-.09-.13c-.02-.02-.05-.07-.07-.1s-.04-.07-.04-.07-.03-.03-.05-.06-.04-.07-.06-.09-.04-.05-.05-.09c-.02-.06-.02-.06.04-.12.09-.08.18-.16.19-.16,0,0,.01-.01.01-.02s.02-.04.05-.05.09-.07.14-.11c.05-.04.11-.1.14-.12s.08-.07.11-.09.1-.09.15-.13c.15-.13.22-.18.27-.23.03-.03.06-.05.08-.06.03,0,.03-.02.01-.03-.01-.01-.15-.02-.44-.02h-.42s-.04.05-.04.05c-.02.03-.05.05-.06.05s-.03.02-.05.04c-.02.02-.04.04-.05.04s-.08.06-.15.13c-.07.07-.14.13-.15.13s-.03.02-.05.04c-.02.03-.05.04-.09.04-.11,0-.13-.06-.09-.39.02-.14.04-.28.05-.3,0-.02.02-.06.02-.08,0-.06,0-.14.05-.47.02-.14.04-.29.04-.33v-.07s-.08,0-.08,0c-.04,0-.12,0-.17,0-.22,0-.33,0-.37.03-.09.05-.13.14-.16.42-.02.14-.04.3-.05.36,0,.06-.04.29-.07.52-.03.23-.06.43-.06.45,0,.02-.03.24-.06.48-.03.25-.06.47-.07.5,0,.03-.01.08-.02.12,0,.03-.01.09-.02.13-.03.17-.03.22-.05.41-.01.11-.02.21-.02.22,0,.01.7,0,.72,0h0ZM62.76,14.84c-.24-.06-.37-.26-.37-.59,0-.17,0-.25.04-.31,0-.02.02-.06.03-.09.02-.09.06-.17.12-.25.15-.2.3-.28.5-.27.32.02.47.19.45.56,0,.19-.03.34-.09.54-.08.25-.21.36-.49.42-.1.02-.11.02-.19,0h0Z"/>
    </g>
    <line class="cls-27" x1="65.11" y1="14.18" x2="65.05" y2="14.4"/>
    <line class="cls-27" x1="66.21" y1="13.65" x2="66.04" y2="13.92"/>
    <line class="cls-27" x1="67.46" y1="12.3" x2="67.49" y2="12.54"/>
    <g id="layer1">
      <path id="path29" class="cls-10" d="M6.74,14.89c-1.58,0-2.63-1.12-2.63-2.48h0c0-1.36,1.06-2.49,2.63-2.48h14.87c1.57,0,2.63,1.13,2.63,2.48h0c0,1.36-1.05,2.48-2.63,2.48H6.74ZM6.74,10.54c-1.25,0-2.02.84-2.02,1.87h0c0,1.03.76,1.88,2.02,1.87h14.86c1.25,0,2.02-.84,2.02-1.87h0c0-1.03-.77-1.87-2.02-1.87H6.74ZM22.4,11.42c.11,0,.17.04.17.11,0,.05-.03.09-.09.11l.09.18h-.11l-.08-.16h-.05v.16h-.1v-.4h.16ZM22.39,11.26c-.2,0-.36.16-.36.36s.16.36.36.36.36-.16.36-.36-.16-.36-.36-.36ZM22.68,11.62c0,.16-.13.29-.29.29s-.29-.13-.29-.29.13-.29.29-.29.29.13.29.29ZM22.34,11.59h.05c.06,0,.08-.02.08-.06s-.03-.06-.09-.06h-.04v.12ZM14.22,12.57c0-.14,0-.23.05-.3.05-.1.16-.14.25-.14h0c.09,0,.19.05.25.14.04.08.05.17.05.3h-.59ZM14.8,13.03s0,0,0,.09c0,.28-.19.35-.29.35s-.29-.06-.29-.35c0-.09,0-.32,0-.32,0,0,1.32,0,1.32,0,0-.48-.47-.88-1.04-.88s-1.03.39-1.03.87.46.87,1.03.87c.47,0,.87-.27,1-.64h-.7ZM17.01,11.95c.26,0,.8.16.79.78,0,.11,0,.84,0,.84h-.7v-1.02c0-.14-.13-.29-.32-.29s-.33.15-.33.29c0,.07,0,1.02,0,1.02h-.7v-1.55s.7,0,.7,0c0,0,0,.12,0,.16.13-.13.33-.23.56-.23h0ZM11.31,11.95c.26,0,.8.16.79.78,0,.11,0,.84,0,.84h-.7v-1.02c0-.14-.13-.29-.32-.29s-.33.15-.33.29c0,.07,0,1.02,0,1.02h-.7v-1.55s.7,0,.7,0c0,0,0,.12,0,.16.13-.13.33-.23.56-.23h0ZM19.32,11.24h.69v2.34h-.69s0-.08,0-.09c-.27.17-.57.17-.81.06-.06-.03-.48-.23-.48-.77,0-.41.39-.86.89-.81.17.01.29.08.4.14,0-.36,0-.86,0-.86h0ZM19.32,12.79v-.28c0-.24-.17-.3-.27-.3s-.28.06-.28.3c0,.08,0,.28,0,.28,0,0,0,.19,0,.28,0,.24.16.3.28.3s.28-.06.28-.3c0-.1,0-.28,0-.28h0ZM21.55,12.79s0,.23,0,.33c0,.25-.15.35-.29.35s-.29-.1-.29-.35c0-.09,0-.33,0-.33,0,0,0-.23,0-.32,0-.25.15-.35.29-.35s.29.1.29.35c0,.09,0,.27,0,.33h0ZM21.27,11.92c-.57,0-1.03.39-1.03.87s.46.87,1.03.87,1.03-.39,1.03-.87-.46-.87-1.03-.87ZM8.96,11.72v-.48h.7v.48h-.7ZM8.96,13.58v-1.55h.7v1.55h-.7ZM12.48,13.58v-1.55s-.38,0-.38,0v-.23h.38s0-.31,0-.31h.7v.31h.38v.23h-.38v1.55s-.7,0-.7,0ZM6.1,13.58v-2.34h.73l1.01,1.63v-1.63s.72,0,.72,0v2.34h-.72l-1.01-1.63v1.63h-.72Z"/>
    </g>
    <g>
      <path id="path14" class="cls-40" d="M90.41,14.19s-.36.63-1.15.55c-.93-.1-1.04-.91-1.04-.91,0,0-.13-.6.44-1.12.58-.49,1.18-.41,1.18-.41,0,0,.41.04.61.71.27.85-.05,1.18-.05,1.18h0ZM91.81,12.5c-.12-.35-.42-.69-.42-.69,0,0-.46-.6-1.37-.8-.78-.16-1.38.18-1.38.18,0,0-.55.22-.97.68-.66.64-.85,1.57-.85,1.57,0,0-.25.81.15,1.45l.44.53c.62.51,1.28.57,1.28.57,0,0,.53.12,1.15-.04.54-.11.94-.38.94-.38,0,0,.9-.5,1.15-1.51l-.1-1.55"/>
      <path id="path16" class="cls-45" d="M98.07,14.37c-1,.6-1.62-.06-1.62-.06,0,0-.28-.18-.34-.74-.04-.64.6-.98.6-.98,0,0,.34-.21.76-.18.42.03.56,0,.9.26.32.29.3.51.3.51,0,0,.12.73-.6,1.19h0ZM99.76,12.32c-.62-1.01-1.7-1.16-1.7-1.16,0,0-.35-.12-1.09-.02-1.39.26-1.87,1.33-1.87,1.33,0,0-.5.78-.3,1.73l.61,1.2c.45.42.63.42.66.44.59.27,1.28.11,1.28.11,0,0,.87-.08,1.66-.7.63-.47.91-1.15.91-1.15l-.16-1.79"/>
      <path id="path18" class="cls-46" d="M101.26,12.54l-.07-.92s.64-.01.91.03c.53.08.5.23.5.23,0,0-.02.19-.42.37-.44.21-.93.29-.93.29h0ZM99.92,14.11s.02.56-.07.7c-.12.26-.1.51-.1.51,0,0-.08.76.8.89.61,0,.68-.51.69-.72.04-.17.02-.95.02-.95l.79.64s.57.48.91.76c.35.27.44.32.44.32,0,0,.07.09.34.06.22,0,.41-.19.41-.19,0,0,.25-.18.31-.5.08-.38-.22-.57-.22-.57,0,0-1.09-.88-1.83-1.49.5-.27.74-.46.74-.46,0,0,.69-.46.84-1.16.2-.77-.38-1.07-.38-1.07,0,0-.36-.26-.67-.4-.77-.38-1.49-.3-1.49-.3,0,0-1.02-.07-1.69.75-.31.4-.12.92-.12.92,0,0,.04.08.12.48.17.8.16,1.79.16,1.79"/>
      <path id="path20" class="cls-34" d="M94.8,14.2c-.3-.07-.77.06-.77.06,0,0-.66.24-.76.24-.04-.06-.12-1.14-.1-1.57.01-.76-.05-1.39-.05-1.39,0,0-.03-.74-.43-1.17-.47-.47-.79-.27-.98-.16-.45.4-.24.89-.24.89l.23.66s.11.28.1.74l.1,1.55c0,.21.17,1.61.17,1.61,0,0,.02.45.45.54.45.07.89-.15,1.07-.24.19-.09.43-.17.43-.17,0,0,.2-.05.41-.06.48-.05.65-.13.65-.13,0,0,.19-.03.31-.2.12-.18.28-1-.61-1.2"/>
      <path id="path22" class="cls-24" d="M86.96,14.89c-.31-.09-.68-.03-.68-.03,0,0-1.02.1-1.55-.01-.82-.14-.8-1.03-.8-1.03,0,0-.03-.59.47-1.38.61-.98,1.29-1.16,1.29-1.16,0,0,.17-.06.33.02.1.57.65.57.65.57,0,0,.8.05.76-.91-.09-.79-.86-.9-1.18-.98-.96-.17-1.59.34-1.59.34,0,0-.64.35-1.42,1.56-.53.75-.59,1.35-.59,1.35,0,0-.06.14-.04.77-.01.49.17.85.17.85,0,0,.28.84,1.16,1.19.54.22,1.32.22,1.32.22,0,0,.76-.01,1.34-.04.32.02.47-.14.47-.14,0,0,.36-.23.32-.64,0,0-.07-.42-.44-.53"/>
    </g>
    <text class="cls-9" transform="translate(106.33 15.97)"><tspan x="0" y="0">MODE</tspan><tspan class="cls-48" x="9" y="0">L</tspan><tspan class="cls-47" x="10.78" y="0" xml:space="preserve"> NO.</tspan></text>
    <line class="cls-28" x1="4.25" y1="18.08" x2="148.82" y2="18.08"/>
    <text class="cls-13" transform="translate(125.8 16.05)"><tspan x="0" y="0">MGBC-001</tspan></text>
    <text class="cls-14" transform="translate(4.18 23.91)"><tspan x="0" y="0">R</tspan><tspan class="cls-35" x="2.53" y="0">A</tspan><tspan x="4.8" y="0">TING </tspan><tspan class="cls-18" x="14.13" y="0" xml:space="preserve">    </tspan><tspan x="17.32" y="0">: DC5V 2.5W</tspan><tspan x="0" y="4.2">B</tspan><tspan class="cls-35" x="2.53" y="4.2">A</tspan><tspan x="4.8" y="4.2">TTE</tspan><tspan class="cls-49" x="11.41" y="4.2">R</tspan><tspan class="cls-1" x="13.8" y="4.2">Y</tspan><tspan class="cls-43" x="16.08" y="4.2" xml:space="preserve"> : 102045 900mAh LiPo</tspan></text>
    <text class="cls-8" transform="translate(61.65 24.12)"><tspan class="cls-33" x="0" y="0">ⒸⓂ</tspan><tspan class="cls-26" x="6" y="0"> </tspan><tspan class="cls-17" x="6.83" y="0">1998 Nintendo</tspan><tspan class="cls-16" x="27.34" y="0">	</tspan><tspan class="cls-17" x="36" y="0" xml:space="preserve">   </tspan><tspan class="cls-33" x="38.5" y="0">Ⓒ</tspan><tspan class="cls-26" x="41.5" y="0"> </tspan><tspan class="cls-17" x="42.33" y="0">2023 MouseBiteLabs </tspan><tspan class="cls-33" x="0" y="3.6">Ⓒ</tspan><tspan class="cls-26" x="3" y="3.6"> </tspan><tspan class="cls-17" x="3.83" y="3.6">2026 Natalie the Nerd</tspan><tspan class="cls-25" x="34.18" y="3.6">	</tspan><tspan class="cls-26" x="36" y="3.6" xml:space="preserve">   </tspan><tspan class="cls-33" x="38.5" y="3.6">Ⓒ</tspan><tspan class="cls-26" x="41.5" y="3.6"> </tspan><tspan class="cls-17" x="42.33" y="3.6">2026 0goki </tspan></text>
    <text class="cls-14" transform="translate(4.37 67.11)"><tspan class="cls-18" x="0" y="0">ASSEMBLED IN THE US</tspan><tspan class="cls-44" x="36.93" y="0">A</tspan></text>
    <g>
      <path class="cls-10" d="M147.57,29.28l-4.41.14-4.38-.13c-.54-.02-1.15-.19-1.26-.79-.09-.52-.11-1.02-.13-1.56-.04-1.15-.05-2.27,0-3.43.02-.55.03-1.08.12-1.61.05-.33.25-.59.55-.7.19-.07.4-.13.61-.13l4.48-.15,4.38.13c.54.02,1.15.18,1.26.79.22,1.18.21,5.38.02,6.6-.05.35-.27.62-.61.72-.2.06-.41.11-.63.12ZM148.22,28.67c.11-.07.16-.25.18-.38.15-1.55.16-4.74-.01-6.28-.02-.23-.16-.4-.39-.45-.21-.04-.43-.08-.65-.08l-4.12-.12c-.71-.02-4.62.06-5.09.29-.12.06-.2.24-.21.37-.15,1.51-.16,4.85.01,6.34.02.2.15.37.35.41.24.05.47.08.72.09l4.09.12c.67.02,4.74-.05,5.13-.31Z"/>
      <path class="cls-10" d="M146.82,28.09l-2.66.11c-1.59.07-3.16,0-4.73-.12-.4-.03-.66-.33-.68-.7-.11-1.48-.12-2.94,0-4.41.05-.6.54-.73,1.06-.75l3.25-.09c1.25-.04,2.47.04,3.72.11.24.01.5.11.65.29s.16.4.18.62c.09,1.36.09,2.7,0,4.06-.01.21-.05.43-.17.59s-.36.28-.6.29ZM146.79,27.66c.21-.01.33-.16.35-.34.09-1.45.09-2.88,0-4.34-.01-.18-.16-.29-.33-.3-1.34-.07-2.65-.17-4-.12l-3.27.12c-.21,0-.35.13-.36.34-.1,1.43-.09,2.84,0,4.27.02.23.15.37.4.38l3.46.1c1.27.04,2.5-.05,3.78-.12Z"/>
      <path class="cls-10" d="M141.9,23.93c.19-.03.35-.03.55,0l-1.5,2.66h-.75s0-2.67,0-2.67h.49s0,2.18,0,2.18l1.22-2.17Z"/>
      <rect class="cls-10" x="145.62" y="23.89" width=".48" height="2.69" transform="translate(-.03 .17) rotate(-.07)"/>
      <g>
        <path class="cls-10" d="M144.95,24.04c-.58-.32-1.29-.2-1.71.31s-.42,1.21,0,1.7,1.09.65,1.7.32l.23.37c-.75.45-1.71.25-2.25-.4s-.56-1.62,0-2.28,1.5-.84,2.26-.4l-.22.38Z"/>
        <path class="cls-10" d="M144.52,24.78c-.22-.08-.44-.06-.59.09-.16.17-.18.42-.04.6.14.19.37.25.61.15l.22.38c-.42.22-.89.1-1.15-.22-.29-.34-.27-.83,0-1.15.28-.35.77-.44,1.17-.23l-.21.38Z"/>
      </g>
    </g>
    <text class="cls-12" transform="translate(50.62 66.87)"><tspan x="0" y="0">MGBC-USA-1-CPU-C</tspan></text>
    <text class="cls-11" transform="translate(4.25 34.89)"><tspan x="0" y="0">THIS</tspan><tspan class="cls-52" x="7.97" y="0"> </tspan><tspan x="9.01" y="0">DEVICE</tspan><tspan class="cls-36" x="22.04" y="0"> </tspan><tspan x="23.08" y="0">COMPLIES</tspan><tspan class="cls-52" x="41.17" y="0"> </tspan><tspan x="42.21" y="0">WITH</tspan><tspan class="cls-36" x="51.15" y="0"> </tspan><tspan class="cls-32" x="52.19" y="0">P</tspan><tspan x="54.26" y="0">A</tspan><tspan class="cls-20" x="56.59" y="0">RT</tspan><tspan class="cls-52" x="61.13" y="0"> </tspan><tspan x="62.17" y="0">15</tspan><tspan class="cls-52" x="66.06" y="0"> </tspan><tspan x="67.1" y="0">OF THE</tspan><tspan class="cls-52" x="79.93" y="0"> </tspan><tspan x="80.97" y="0">FCC</tspan><tspan class="cls-5" x="88.16" y="0"> </tspan><tspan x="89.2" y="0">RULES,</tspan><tspan class="cls-52" x="101.84" y="0"> </tspan><tspan x="102.88" y="0">OPER</tspan><tspan class="cls-32" x="112.8" y="0">A</tspan><tspan x="114.87" y="0">TION</tspan><tspan class="cls-52" x="123.23" y="0"> </tspan><tspan x="124.27" y="0">IS</tspan><tspan class="cls-52" x="127.58" y="0"> </tspan><tspan x="128.62" y="0">SUBJEC</tspan><tspan class="cls-20" x="142.42" y="0">T</tspan><tspan x="144.5" y="0"> </tspan><tspan class="cls-20" x="0" y="4.2">T</tspan><tspan x="2.07" y="4.2">O</tspan><tspan class="cls-38" x="4.8" y="4.2"> </tspan><tspan x="5.82" y="4.2">THE</tspan><tspan class="cls-22" x="12.82" y="4.2"> </tspan><tspan x="13.91" y="4.2">FOLLOWING</tspan><tspan class="cls-4" x="34.92" y="4.2"> </tspan><tspan x="35.94" y="4.2">TWO</tspan><tspan class="cls-22" x="44.1" y="4.2"> </tspan><tspan x="45.2" y="4.2">CONDITIONS:</tspan><tspan class="cls-22" x="68.14" y="4.2"> </tspan><tspan class="cls-37" x="69.23" y="4.2">(1)</tspan><tspan class="cls-3" x="73.51" y="4.2"> </tspan><tspan x="74.54" y="4.2">THIS</tspan><tspan class="cls-22" x="82.51" y="4.2"> </tspan><tspan x="83.6" y="4.2">DEVICE</tspan><tspan class="cls-22" x="96.63" y="4.2"> </tspan><tspan x="97.73" y="4.2">M</tspan><tspan class="cls-32" x="100.64" y="4.2">A</tspan><tspan class="cls-20" x="102.72" y="4.2">Y</tspan><tspan class="cls-22" x="104.99" y="4.2"> </tspan><tspan x="106.08" y="4.2">NO</tspan><tspan class="cls-20" x="111.33" y="4.2">T</tspan><tspan class="cls-22" x="113.4" y="4.2"> </tspan><tspan x="114.5" y="4.2">CAUSE</tspan><tspan class="cls-22" x="126.56" y="4.2"> </tspan><tspan x="127.65" y="4.2">HARMFU</tspan><tspan class="cls-50" x="142.62" y="4.2">L</tspan><tspan x="144.44" y="4.2"> </tspan><tspan x="0" y="8.4">INTERFERENCE.</tspan><tspan class="cls-23" x="28.2" y="8.4"> </tspan><tspan class="cls-42" x="28.82" y="8.4">AND</tspan><tspan class="cls-41" x="36.21" y="8.4"> </tspan><tspan class="cls-42" x="36.99" y="8.4">(2)</tspan><tspan class="cls-51" x="41.27" y="8.4"> </tspan><tspan x="41.99" y="8.4">THIS</tspan><tspan class="cls-31" x="49.97" y="8.4"> </tspan><tspan x="50.74" y="8.4">DEVICE</tspan><tspan class="cls-41" x="63.77" y="8.4"> </tspan><tspan x="64.55" y="8.4">MUS</tspan><tspan class="cls-20" x="72.33" y="8.4">T</tspan><tspan class="cls-23" x="74.41" y="8.4"> </tspan><tspan x="75.03" y="8.4">ACCEP</tspan><tspan class="cls-20" x="87.09" y="8.4">T</tspan><tspan class="cls-6" x="89.16" y="8.4"> </tspan><tspan class="cls-43" x="89.79" y="8.4">AN</tspan><tspan class="cls-1" x="94.65" y="8.4">Y</tspan><tspan class="cls-41" x="96.92" y="8.4"> </tspan><tspan x="97.7" y="8.4">INTERFERENCE</tspan><tspan class="cls-41" x="124.92" y="8.4"> </tspan><tspan x="125.7" y="8.4">RECIEVED. </tspan><tspan x="0" y="12.6">INCLUDING</tspan><tspan class="cls-2" x="19.25" y="12.6"> </tspan><tspan x="23.97" y="12.6">INTERFERENCE</tspan><tspan class="cls-30" x="51.2" y="12.6"> </tspan><tspan x="55.61" y="12.6">TH</tspan><tspan class="cls-21" x="60.27" y="12.6">A</tspan><tspan class="cls-20" x="62.35" y="12.6">T</tspan><tspan class="cls-2" x="64.42" y="12.6"> </tspan><tspan x="69.14" y="12.6">M</tspan><tspan class="cls-32" x="72.06" y="12.6">A</tspan><tspan class="cls-19" x="74.13" y="12.6">Y</tspan><tspan class="cls-39" x="76.4" y="12.6"> </tspan><tspan x="81.13" y="12.6">CAUSE</tspan><tspan class="cls-2" x="93.19" y="12.6"> </tspan><tspan x="97.91" y="12.6">UNDESIRED</tspan><tspan class="cls-2" x="118.52" y="12.6"> </tspan><tspan x="123.24" y="12.6">OPER</tspan><tspan class="cls-32" x="133.16" y="12.6">A</tspan><tspan x="135.23" y="12.6">TION. </tspan><tspan x="0" y="16.8">THIS CLASS B DIGI</tspan><tspan class="cls-32" x="31.9" y="16.8">T</tspan><tspan x="33.77" y="16.8">A</tspan><tspan class="cls-50" x="36.11" y="16.8">L</tspan><tspan class="cls-15" x="37.93" y="16.8"> </tspan><tspan class="cls-42" x="38.7" y="16.8">AP</tspan><tspan class="cls-21" x="43.37" y="16.8">P</tspan><tspan class="cls-37" x="45.45" y="16.8">AR</tspan><tspan class="cls-21" x="50.31" y="16.8">A</tspan><tspan class="cls-37" x="52.39" y="16.8">TUS MEETS</tspan><tspan class="cls-29" x="72.41" y="16.8"> </tspan><tspan x="73.19" y="16.8">AL</tspan><tspan class="cls-50" x="77.47" y="16.8">L</tspan><tspan x="79.29" y="16.8" xml:space="preserve"> REQUIREMENTS OF</tspan><tspan class="cls-20" x="114.29" y="16.8"> </tspan><tspan x="115.2" y="16.8">THE CANADIAN </tspan><tspan x="0" y="21">INTERFERENCE CAUSING EQUIPMEN</tspan><tspan class="cls-20" x="63.78" y="21">T</tspan><tspan x="65.86" y="21" xml:space="preserve"> REGUL</tspan><tspan class="cls-32" x="78.89" y="21">A</tspan><tspan x="80.96" y="21">TIONS.</tspan></text>
  </g>
</svg>