<?xml version="1.0" encoding="UTF-8"?>
<svg id="Layer_2" data-name="Layer 2" xmlns="http://www.w3.org/2000/svg" viewBox="0 0 153.07 73.36">
  <defs>
    <style>
      .cls-1 {
        fill: #333;
      }

      .cls-2 {
        letter-spacing: -.07em;
      }

      .cls-3 {
        isolation: isolate;
      }

      .cls-3, .cls-4 {
        font-size: 3px;
      }

      .cls-3, .cls-4, .cls-5, .cls-6, .cls-7, .cls-8 {
        fill: #fff;
      }

      .cls-4, .cls-7, .cls-8, .cls-9, .cls-10 {
        font-family: Arial-BoldMT, Arial;
        font-weight: 700;
      }

      .cls-11 {
        letter-spacing: -.06em;
      }

      .cls-12 {
        letter-spacing: -.02em;
      }

      .cls-13 {
        letter-spacing: -.02em;
      }

      .cls-14 {
        fill: #b81e44;
      }

      .cls-15 {
        letter-spacing: .33em;
      }

      .cls-15, .cls-16, .cls-6 {
        font-family: ArialMT, Arial;
      }

      .cls-17, .cls-18 {
        fill: none;
      }

      .cls-19 {
        letter-spacing: -.09em;
      }

      .cls-20 {
        letter-spacing: -.07em;
      }

      .cls-21 {
        font-family: KozGoPr6N-Medium-90ms-RKSJ-H, 'Kozuka Gothic Pr6N';
        font-weight: 500;
      }

      .cls-22 {
        letter-spacing: -.02em;
      }

      .cls-23 {
        letter-spacing: -.05em;
      }

      .cls-24 {
        fill: #6cb144;
      }

      .cls-25 {
        letter-spacing: 0em;
      }

      .cls-6 {
        font-size: 3.43px;
      }

      .cls-26 {
        letter-spacing: -.05em;
      }

      .cls-27 {
        fill: #504ea1;
      }

      .cls-28 {
        letter-spacing: -.07em;
      }

      .cls-7 {
        font-size: 4.5px;
        letter-spacing: -.05em;
      }

      .cls-29 {
        letter-spacing: -.04em;
      }

      .cls-30 {
        fill: #d9ac28;
      }

      .cls-8 {
        font-size: 2.5px;
        letter-spacing: -.05em;
      }

      .cls-31 {
        letter-spacing: 0em;
      }

      .cls-32 {
        fill: #08948b;
      }

      .cls-33 {
        letter-spacing: 0em;
      }

      .cls-34 {
        letter-spacing: -.02em;
      }

      .cls-9 {
        letter-spacing: 2.61em;
      }

      .cls-35 {
        letter-spacing: -.07em;
      }

      .cls-36 {
        letter-spacing: -.02em;
      }

      .cls-18 {
        stroke: #fff;
        stroke-miterlimit: 10;
        stroke-width: .25px;
      }

      .cls-37 {
        letter-spacing: -.04em;
      }

      .cls-38 {
        letter-spacing: -.04em;
      }
    </style>
  </defs>
  <g id="Layer_1-2" data-name="Layer 1">
    <rect class="cls-1" x="0" y="5.33" width="153.07" height="68.03" rx="3.33" ry="3.33"/>
    <g>
      <path id="path24" class="cls-5" d="M31.06,12.99l-.19-.98-.44.98h.63ZM37.96,15.49h-1.04l-.14-3.13-1.35,3.13h-.69l-.58-2.83-.9,2.83h-1.77l-.27-1.51h-1.2l-.68,1.51h-1.09l2.23-5.07h1.28l.68,4.09,1.33-4.09h1.03l.51,2.78,1.18-2.78h1.25l.22,5.07"/>
      <path id="path26" class="cls-5" d="M40.94,15.49l.17-1.09h-1.82l.14-.9h1.58l.17-1.09h-1.6l.14-.9h1.82l.17-1.09h-2.88l-.81,5.07h2.9"/>
      <path id="path28" class="cls-5" d="M54.46,10.43h-1.21l-1.03,1.65-.65-1.65h-1.19l1.23,2.67-.38,2.39h1.04l.32-2.12,1.87-2.95"/>
      <path id="path30" class="cls-5" d="M48.28,14.53c.55.25,1.22-.24,1.51-1.08.28-.84.06-1.73-.49-1.97-.55-.25-1.22.24-1.51,1.08-.28.84-.06,1.72.49,1.97h0ZM46.71,12.52c.32-1.4,1.52-2.32,2.67-2.05,1.15.27,1.83,1.62,1.5,3.02-.32,1.4-1.52,2.32-2.67,2.05-1.15-.27-1.83-1.62-1.5-3.02"/>
      <path id="path32" class="cls-5" d="M26.02,10.88c-.99.61-1.47,1.55-1.34,2.82.15,1.48,2.06,2.41,3.68,1.47.14-.08.09-.07.14-.12l.32-2.06h-1.93l-.15.95h.81l-.09.51c-.46.18-1.25.12-1.58-.49-.21-.38-.41-1.23.49-2.01.73-.64,1.99-.75,2.72-.42,0,0,.09-.53.16-1.03-1.4-.49-2.49-.08-3.21.37"/>
      <path id="path34" class="cls-5" d="M43.31,10.45l-.8,5.03h2.34c.96,0,2.37-1.42,1.09-2.58,1.32-1.37.01-2.43-.69-2.44-.56,0-1.95,0-1.95,0h.01ZM43.89,13.5h.87c.83,0,.8,1.01-.11,1.01h-.92l.16-1.01h0ZM44.21,11.52h.68c.73,0,.59.94-.11.94h-.72l.16-.94"/>
      <path id="path36" class="cls-5" d="M53.21,15.96h-.2l.16-.7h-.28l.04-.15h.76l-.04.15h-.28l-.16.7"/>
      <path id="path38" class="cls-5" d="M54.51,15.96h-.18l.17-.71h0l-.34.71h-.19v-.71h0l-.17.71h-.18l.2-.85h.29v.67h.02l.32-.67h.28l-.2.85"/>
    </g>
    <g id="g4583">
      <path id="path4572" class="cls-5" d="M57.02,13.12v-2.71h16.35v5.42h-7.81c-8.07,0-7.85,0-7.79-.05,0,0,.02-.07.02-.13,0-.06.03-.24.05-.4s.04-.3.04-.32c0-.07.03-.08.09-.03.07.06.2.12.31.15.07.02.13.02.28.01.18,0,.2-.01.33-.07.08-.03.16-.08.18-.09.04-.04.13-.11.15-.13.04-.03.17-.22.23-.33.09-.19.1-.22.15-.43.02-.09.02-.27,0-.38-.03-.2-.13-.41-.25-.55-.05-.06-.1-.1-.11-.1s-.04-.02-.08-.05-.08-.05-.08-.05-.03,0-.04-.01c-.12-.06-.4-.08-.59-.03-.18.04-.27.08-.33.12-.08.06-.23.06-.4.01-.16-.05-.17-.05-.2,0-.02.03-.06.3-.08.53,0,.04-.01.09-.01.11,0,.03-.02.18-.05.35-.02.17-.04.33-.05.37,0,.03-.01.07-.02.08,0,.12-.08.69-.14,1.06,0,.06-.01.12,0,.14,0,.02,0,.04,0,.04,0,0-.02.03-.02.05s0,.06,0,.09c0,.04-.02.05-.06.05h-.05v-2.71ZM61.19,15.04c.2-.05.27-.08.33-.12.03-.02.07-.04.08-.04.02,0,.04-.02.21-.19.06-.06.12-.12.12-.13s.02-.04.05-.08c.04-.06.08-.14.08-.17,0,0,.01-.04.02-.06.01-.03.03-.07.03-.11,0-.03.02-.09.03-.13.02-.09.02-.44,0-.54-.03-.15-.12-.31-.23-.41-.04-.04-.08-.08-.09-.08s-.06-.03-.11-.06c-.06-.03-.11-.06-.12-.06-.01,0-.04,0-.07-.02-.14-.06-.44-.05-.68.01-.29.08-.36.12-.57.33-.11.11-.25.34-.25.41,0,.02,0,.03-.01.03-.02,0-.09.31-.09.4,0,.03,0,.06,0,.08,0,.01,0,.08,0,.15.01.14.04.26.08.32.01.02.04.06.05.09.05.11.29.3.38.3.02,0,.03,0,.03.01s.03.02.07.03c.04.01.09.02.11.03.02,0,.12.01.23.01.15,0,.22,0,.31-.03h0ZM60.88,14.66c-.14-.02-.23-.08-.27-.18-.08-.2-.08-.38-.02-.7,0-.02,0-.05.01-.07,0-.04.01-.07.08-.21.05-.11.18-.24.26-.26.03,0,.09-.02.12-.03.04-.01.07-.01.09,0,.02,0,.04.01.05,0,.01,0,.04,0,.06.02.02.01.05.02.06.02s.02,0,.02.02.02.02.04.03c.05.02.09.13.11.27.04.29-.06.78-.2.93-.06.07-.17.13-.25.15-.04,0-.08.02-.08.02,0,0-.04,0-.09-.01h0ZM63.67,15.04c.1-.02.28-.1.39-.17.07-.05.17-.14.17-.15,0,0,.03-.04.06-.09.03-.04.06-.09.06-.1s.01-.04.03-.07c.02-.03.03-.08.04-.11,0-.03.01-.07.01-.08,0-.02-.05-.02-.3-.02-.31,0-.31,0-.33.03-.01.02-.02.04-.01.04.01.01-.08.18-.13.24-.06.07-.24.13-.32.1-.09-.04-.11-.05-.16-.12-.04-.06-.05-.1-.06-.22,0-.08-.01-.16-.01-.18,0-.09.02-.3.04-.32,0-.01.01-.04.01-.06,0-.04.04-.18.06-.23,0-.01.01-.03.01-.04,0-.02.07-.13.12-.18.08-.08.27-.11.37-.07.11.05.14.1.18.28,0,.02.02.05.04.06.04.02.33.03.4.02.03,0,.06,0,.08,0,.04.01.12,0,.12-.03,0,0,0-.03,0-.05,0-.02,0-.08-.02-.14-.05-.2-.09-.27-.23-.38-.07-.06-.23-.14-.28-.15-.02,0-.06-.01-.11-.02-.14-.03-.28-.03-.41-.02-.13.02-.39.11-.44.15-.02.01-.05.04-.08.05s-.05.03-.06.04c0,.01-.02.03-.04.03-.04.02-.2.23-.25.32-.07.12-.15.38-.15.46,0,.02,0,.04-.02.06-.01.02-.02.11-.01.23,0,.22.03.35.11.47.02.04.05.08.05.09s.01.03.03.04.04.04.05.05c.04.05.15.13.25.18.05.02.1.05.11.05.01,0,.07.01.12.02.05,0,.1,0,.11.01.01.01.28,0,.39-.03h0ZM68.24,15.01c.18-.04.27-.08.3-.12.01-.01.03-.02.04-.02.06,0,.32-.34.29-.38,0,0-.13,0-.27,0-.24,0-.26,0-.29.03-.09.09-.16.12-.32.13-.11,0-.17,0-.18,0,0,0-.03-.02-.04-.02s-.05-.02-.08-.05c-.04-.04-.06-.07-.08-.17-.02-.1-.02-.13-.01-.16.01-.02.01-.05,0-.08,0-.03,0-.05,0-.07.02-.02.28-.02,1.17-.02.04,0,.09,0,.1-.02s.04-.03.06-.04c.02-.01.04-.03.04-.04s.02-.03.03-.04c.03-.02.03-.03.04-.25,0-.21,0-.23-.04-.37-.03-.08-.06-.16-.08-.18-.02-.02-.03-.03-.03-.04,0-.02-.15-.17-.18-.17-.01,0-.02-.01-.03-.02s-.02-.02-.04-.02-.03,0-.03-.01-.02-.02-.03-.02c-.02,0-.06-.02-.1-.03-.16-.04-.35-.05-.49-.02-.19.04-.39.11-.42.14,0,0-.03.03-.06.04-.11.05-.33.31-.4.46-.01.03-.03.07-.04.09s-.02.05-.03.07c-.05.13-.1.46-.1.65,0,.17.1.46.17.52.02.02.04.04.04.05s.01.02.02.02.02,0,.02.01.02.02.04.04c.11.06.21.1.23.1.02,0,.04,0,.06.02.02,0,.08.02.14.02.06,0,.11.01.12.01.02.02.29-.01.43-.05h0ZM67.68,13.61c0-.07.09-.24.14-.31.03-.04.15-.08.24-.1.12-.01.25.02.3.07.05.05.1.23.08.32-.02.08-.05.09-.44.1h-.33s.01-.08.01-.08ZM70.4,15.03c.1-.01.19-.02.2-.03.02-.01.03-.04.04-.11,0-.05.01-.13.02-.17v-.07s-.13,0-.13,0c-.18,0-.24-.03-.27-.11-.03-.07-.02-.18.04-.63.03-.19.05-.36.05-.39,0-.03,0-.06.01-.07,0-.01.01-.06.02-.1s.01-.08.02-.08c0,0,.11-.01.23-.01.12,0,.22,0,.23-.02.02-.02.06-.37.05-.38,0,0-.11,0-.24,0-.23,0-.24,0-.23-.05,0,0,0-.05,0-.08,0-.04,0-.09.01-.12,0-.03.01-.08.02-.12,0-.04.01-.09.02-.13,0-.05,0-.06-.03-.05-.1.02-.22.04-.37.07-.11.02-.17.04-.19.06-.03.03-.06.11-.07.22,0,.04-.02.08-.03.09-.01.01-.02.03-.03.05-.01.04-.17.08-.29.07-.06,0-.11,0-.11.01-.01.02-.05.3-.05.36,0,.03,0,.03.2.03.11,0,.21,0,.21,0,0,0,0,.11-.02.24-.02.13-.03.25-.03.28,0,.03,0,.06-.01.07s-.01.04-.01.06,0,.07-.01.1c-.02.1-.05.41-.05.47,0,.03,0,.07,0,.09,0,.18.06.35.15.41.13.08.31.09.64.06h0ZM65.37,14.97s.04-.23.06-.38c.06-.45.08-.54.11-.45,0,.02.02.04.03.04s.03.03.04.06.04.08.06.1c.02.03.05.07.06.1.01.03.03.06.04.06.01,0,.06.08.06.11,0,0,.02.04.05.07.03.03.05.06.05.07s0,.03.02.04.04.06.06.1c.04.08.04.08.12.08.04,0,.17,0,.27,0,.1,0,.23,0,.28,0,.09,0,.09,0,.07-.04,0-.02-.03-.05-.04-.06-.03-.03-.09-.11-.13-.18-.01-.02-.04-.06-.06-.08-.02-.02-.04-.06-.05-.08s-.02-.05-.03-.05-.02-.02-.04-.05c-.01-.03-.04-.06-.06-.08s-.05-.07-.08-.11-.06-.1-.08-.11c-.02-.02-.04-.06-.06-.09s-.03-.06-.04-.06-.03-.02-.04-.05-.04-.06-.05-.07-.03-.05-.04-.07c-.02-.05-.01-.05.03-.1.07-.07.15-.13.16-.13,0,0,.01,0,.01-.02s.02-.03.04-.04.08-.06.12-.09c.04-.04.1-.08.12-.1s.06-.06.09-.08.09-.08.13-.11c.13-.11.18-.16.23-.2.02-.02.05-.04.07-.05.02,0,.02-.01.01-.03-.01-.01-.12-.02-.37-.02h-.35s-.03.04-.03.04c-.02.02-.04.04-.05.04s-.03.02-.04.04c-.01.02-.03.04-.04.04s-.07.05-.13.11c-.06.06-.12.11-.12.11s-.02.02-.04.04c-.02.03-.04.04-.08.04-.1,0-.11-.05-.08-.33.01-.12.03-.23.04-.25,0-.02.01-.05.01-.07,0-.05,0-.12.04-.4.02-.12.03-.25.03-.28v-.06s-.06,0-.06,0c-.04,0-.1,0-.14,0-.19,0-.28,0-.32.03-.08.04-.11.12-.14.36-.01.12-.03.25-.04.3,0,.05-.04.25-.06.44-.03.19-.05.36-.05.38,0,.02-.03.2-.05.41-.03.21-.05.4-.06.43,0,.03-.01.07-.02.1,0,.03,0,.08-.01.11-.02.15-.03.19-.05.35-.01.1-.02.18-.01.18,0,.01.6,0,.61,0h0ZM58.31,14.58c-.21-.05-.31-.22-.31-.51,0-.14,0-.21.03-.26,0-.02.02-.05.02-.08.02-.08.05-.14.1-.21.12-.17.26-.24.43-.23.28.02.4.17.38.47,0,.16-.03.29-.08.46-.06.21-.18.31-.41.36-.09.02-.1.02-.16,0h0Z"/>
    </g>
    <line class="cls-17" x1="65.11" y1="14.18" x2="65.05" y2="14.4"/>
    <line class="cls-17" x1="66.21" y1="13.65" x2="66.04" y2="13.92"/>
    <line class="cls-17" x1="67.46" y1="12.3" x2="67.49" y2="12.54"/>
    <g id="layer1">
      <path id="path29" class="cls-5" d="M7.8,14.54c-1.35,0-2.26-.96-2.26-2.12h0c0-1.16.91-2.13,2.26-2.13h12.75c1.35,0,2.26.97,2.26,2.13h0c0,1.16-.9,2.12-2.26,2.12H7.8ZM7.8,10.81c-1.07,0-1.73.72-1.73,1.6h0c0,.89.65,1.61,1.73,1.6h12.74c1.08,0,1.73-.72,1.73-1.6h0c0-.89-.66-1.6-1.73-1.6H7.8ZM21.23,11.56c.1,0,.15.03.15.1,0,.04-.03.08-.07.09l.08.15h-.09l-.07-.14h-.04v.14h-.08v-.34h.13ZM21.22,11.42c-.17,0-.31.14-.31.31s.14.31.31.31.31-.14.31-.31-.14-.31-.31-.31ZM21.47,11.73c0,.14-.11.25-.25.25s-.25-.11-.25-.25.11-.25.25-.25.25.11.25.25ZM21.18,11.71h.04s.07-.01.07-.05-.02-.05-.07-.05h-.04v.1ZM14.21,12.54c0-.12,0-.19.04-.26.05-.08.13-.12.21-.12h0c.08,0,.16.04.21.12.04.07.04.14.04.26h-.5ZM14.71,12.94s0,0,0,.08c0,.24-.16.3-.25.3s-.25-.05-.25-.3c0-.07,0-.27,0-.27,0,0,1.13,0,1.13,0,0-.41-.4-.75-.89-.75s-.89.33-.89.75.4.75.89.75c.41,0,.75-.23.85-.55h-.6ZM16.61,12.02c.23,0,.68.14.68.67,0,.09,0,.72,0,.72h-.6v-.87c0-.12-.11-.25-.28-.25s-.29.13-.29.25c0,.06,0,.87,0,.87h-.6v-1.33s.6,0,.6,0c0,0,0,.11,0,.14.12-.11.28-.2.48-.2h0ZM11.72,12.02c.23,0,.68.14.68.67,0,.09,0,.72,0,.72h-.6v-.87c0-.12-.11-.25-.28-.25s-.29.13-.29.25c0,.06,0,.87,0,.87h-.6v-1.33s.6,0,.6,0c0,0,0,.11,0,.14.12-.11.28-.2.48-.2h0ZM18.58,11.41h.59v2h-.6s0-.06,0-.08c-.23.14-.49.14-.69.05-.05-.03-.41-.2-.41-.66,0-.35.33-.74.77-.7.14.01.24.06.34.12,0-.31,0-.74,0-.74h0ZM18.59,12.74v-.24c0-.21-.14-.26-.24-.26s-.24.05-.24.26c0,.07,0,.24,0,.24,0,0,0,.17,0,.24,0,.21.14.26.24.26s.24-.05.24-.26c0-.09,0-.24,0-.24h0ZM20.49,12.73s0,.2,0,.28c0,.21-.13.3-.25.3s-.25-.09-.25-.3c0-.08,0-.29,0-.29,0,0,0-.2,0-.28,0-.21.13-.3.25-.3s.25.09.25.3c0,.08,0,.23,0,.28h0ZM20.25,11.99c-.49,0-.88.33-.88.75s.39.75.88.75.88-.33.88-.75-.39-.75-.88-.75ZM9.7,11.82v-.41h.6v.41h-.6ZM9.7,13.41v-1.33h.6v1.33h-.6ZM12.72,13.41v-1.33s-.33,0-.33,0v-.2h.33s0-.27,0-.27h.6v.27h.33v.2h-.33v1.33s-.6,0-.6,0ZM7.26,13.41v-2h.62l.86,1.4v-1.4s.62,0,.62,0v2h-.62l-.87-1.4v1.4h-.62Z"/>
    </g>
    <g>
      <path id="path14" class="cls-27" d="M82.25,14.07s-.32.56-1.02.49c-.82-.08-.92-.81-.92-.81,0,0-.11-.53.39-1,.51-.43,1.05-.37,1.05-.37,0,0,.36.03.55.63.24.76-.05,1.05-.05,1.05h0ZM83.5,12.57c-.1-.31-.38-.61-.38-.61,0,0-.41-.53-1.22-.71-.69-.14-1.23.16-1.23.16,0,0-.49.2-.86.6-.59.57-.76,1.39-.76,1.39,0,0-.23.72.13,1.29l.39.47c.55.46,1.13.5,1.13.5,0,0,.47.11,1.02-.04.48-.1.83-.34.83-.34,0,0,.8-.44,1.02-1.34l-.09-1.38"/>
      <path id="path16" class="cls-30" d="M89.07,14.23c-.89.53-1.44-.05-1.44-.05,0,0-.25-.16-.3-.66-.04-.57.53-.87.53-.87,0,0,.3-.18.68-.16.38.03.49,0,.8.23.29.26.27.45.27.45,0,0,.1.65-.53,1.06h0ZM90.57,12.4c-.55-.9-1.51-1.03-1.51-1.03,0,0-.31-.1-.96-.02-1.23.23-1.66,1.18-1.66,1.18,0,0-.44.7-.27,1.54l.54,1.06c.4.37.56.37.59.39.53.24,1.14.1,1.14.1,0,0,.77-.08,1.48-.62.56-.41.81-1.02.81-1.02l-.14-1.59"/>
      <path id="path18" class="cls-32" d="M91.9,12.61l-.06-.82s.57-.01.81.03c.47.07.44.2.44.2,0,0-.02.17-.37.33-.39.19-.82.26-.82.26h0ZM90.71,14s.02.5-.06.62c-.11.23-.09.45-.09.45,0,0-.07.68.71.79.54,0,.6-.45.61-.64.03-.15.02-.85.02-.85l.7.57s.51.43.8.67c.31.24.39.29.39.29,0,0,.07.08.3.05.19,0,.37-.17.37-.17,0,0,.22-.16.28-.45.07-.34-.19-.5-.19-.5,0,0-.97-.78-1.63-1.32.44-.24.65-.41.65-.41,0,0,.61-.41.75-1.03.18-.69-.34-.96-.34-.96,0,0-.32-.23-.6-.35-.69-.34-1.32-.27-1.32-.27,0,0-.91-.06-1.5.67-.27.35-.1.82-.1.82,0,0,.03.07.11.43.15.71.14,1.59.14,1.59"/>
      <path id="path20" class="cls-24" d="M86.16,14.08c-.26-.06-.69.05-.69.05,0,0-.59.22-.68.21-.03-.05-.11-1.01-.09-1.4.01-.68-.04-1.23-.04-1.23,0,0-.03-.65-.38-1.04-.41-.42-.7-.24-.87-.14-.4.36-.21.79-.21.79l.21.59s.1.25.09.66l.09,1.38c0,.18.15,1.43.15,1.43,0,0,.02.4.4.48.4.07.79-.13.96-.21.17-.08.39-.15.39-.15,0,0,.18-.04.36-.06.43-.04.58-.12.58-.12,0,0,.16-.02.28-.18.11-.16.24-.89-.54-1.06"/>
      <path id="path22" class="cls-14" d="M79.19,14.69c-.28-.08-.6-.03-.6-.03,0,0-.91.09-1.38-.01-.73-.13-.71-.92-.71-.92,0,0-.02-.52.42-1.23.54-.87,1.15-1.03,1.15-1.03,0,0,.15-.06.29.02.09.51.58.5.58.5,0,0,.71.05.67-.81-.08-.7-.76-.8-1.05-.87-.86-.15-1.41.3-1.41.3,0,0-.57.31-1.26,1.39-.47.67-.52,1.2-.52,1.2,0,0-.06.13-.03.68-.01.44.15.75.15.75,0,0,.25.75,1.03,1.06.48.2,1.17.19,1.17.19,0,0,.67,0,1.19-.04.28.02.42-.13.42-.13,0,0,.32-.21.28-.57,0,0-.06-.37-.39-.47"/>
    </g>
    <text class="cls-4" transform="translate(108.46 14.84)"><tspan x="0" y="0">MODE</tspan><tspan class="cls-34" x="9" y="0">L</tspan><tspan class="cls-33" x="10.78" y="0" xml:space="preserve"> NO.</tspan></text>
    <line class="cls-18" x1="5.67" y1="18.08" x2="147.4" y2="18.08"/>
    <text class="cls-7" transform="translate(126.89 14.91)"><tspan x="0" y="0">MGBC-001</tspan></text>
    <text class="cls-4" transform="translate(5.2 24.09)"><tspan x="0" y="0">R</tspan><tspan class="cls-20" x="2.17" y="0">A</tspan><tspan x="4.11" y="0">TING </tspan><tspan class="cls-26" x="12.11" y="0" xml:space="preserve">    </tspan><tspan x="14.84" y="0">: DC5V 2.5W</tspan><tspan x="0" y="3.6">B</tspan><tspan class="cls-20" x="2.17" y="3.6">A</tspan><tspan x="4.11" y="3.6">TTE</tspan><tspan class="cls-37" x="9.78" y="3.6">R</tspan><tspan class="cls-13" x="11.83" y="3.6">Y</tspan><tspan class="cls-31" x="13.78" y="3.6" xml:space="preserve"> : 102045 900mAh LiPo</tspan></text>
    <text class="cls-3" transform="translate(56.73 24.12)"><tspan class="cls-21" x="0" y="0">ⒸⓂ</tspan><tspan class="cls-16" x="6" y="0"> </tspan><tspan class="cls-10" x="6.83" y="0">1998 Nintendo</tspan><tspan class="cls-9" x="27.34" y="0">	</tspan><tspan class="cls-10" x="36" y="0" xml:space="preserve">   </tspan><tspan class="cls-21" x="38.5" y="0">Ⓒ</tspan><tspan class="cls-16" x="41.5" y="0"> </tspan><tspan class="cls-10" x="42.33" y="0">2023 MouseBiteLabs </tspan><tspan class="cls-21" x="0" y="3.6">Ⓒ</tspan><tspan class="cls-16" x="3" y="3.6"> </tspan><tspan class="cls-10" x="3.83" y="3.6">2026 Natalie the Nerd</tspan><tspan class="cls-15" x="34.18" y="3.6">	</tspan><tspan class="cls-16" x="36" y="3.6" xml:space="preserve">   </tspan><tspan class="cls-21" x="38.5" y="3.6">Ⓒ</tspan><tspan class="cls-16" x="41.5" y="3.6"> </tspan><tspan class="cls-10" x="42.33" y="3.6">2026 0goki </tspan></text>
    <text class="cls-4" transform="translate(5.77 66.99)"><tspan class="cls-23" x="0" y="0">ASSEMBLED IN THE US</tspan><tspan class="cls-19" x="31.65" y="0">A</tspan></text>
    <g>
      <path class="cls-5" d="M145.44,29.28l-4.42.14-4.38-.14c-.54-.02-1.15-.19-1.26-.79-.09-.52-.11-1.02-.13-1.56-.04-1.15-.04-2.27,0-3.43.02-.55.03-1.08.12-1.61.05-.33.25-.59.55-.7.19-.07.4-.13.61-.13l4.48-.15,4.38.14c.54.02,1.15.18,1.26.79.21,1.18.2,5.38.01,6.6-.06.35-.27.62-.61.72-.2.06-.41.11-.63.12ZM146.09,28.67c.11-.07.16-.25.18-.38.15-1.55.16-4.74,0-6.28-.02-.23-.16-.4-.39-.45-.21-.04-.43-.08-.65-.08l-4.12-.13c-.7-.02-4.62.05-5.09.29-.12.06-.2.24-.21.37-.15,1.51-.17,4.85,0,6.34.02.2.15.37.35.42.24.05.47.08.72.09l4.09.13c.66.02,4.74-.05,5.13-.31Z"/>
      <path class="cls-5" d="M144.69,28.09l-2.66.11c-1.59.07-3.16-.01-4.73-.12-.4-.03-.66-.33-.68-.7-.11-1.48-.11-2.94,0-4.41.05-.6.54-.73,1.06-.75l3.25-.09c1.25-.04,2.47.05,3.71.11.24.01.5.11.65.29s.16.4.18.62c.09,1.36.09,2.7,0,4.06-.01.21-.05.43-.17.59s-.36.28-.6.29ZM144.67,27.66c.21-.01.33-.16.35-.34.1-1.45.1-2.88,0-4.34-.01-.18-.16-.29-.33-.3-1.34-.07-2.65-.17-4-.12l-3.27.12c-.21,0-.35.13-.36.34-.1,1.43-.1,2.84,0,4.27.01.23.15.37.39.38l3.45.11c1.27.04,2.5-.05,3.78-.11Z"/>
      <path class="cls-5" d="M139.77,23.92c.19-.03.35-.03.55,0l-1.5,2.66h-.75s0-2.67,0-2.67h.49s0,2.18,0,2.18l1.22-2.16Z"/>
      <rect class="cls-5" x="143.49" y="23.9" width=".48" height="2.69"/>
      <g>
        <path class="cls-5" d="M142.82,24.05c-.58-.32-1.29-.2-1.71.3s-.42,1.21,0,1.7,1.09.65,1.7.33l.23.37c-.75.45-1.71.25-2.25-.4s-.55-1.62,0-2.28,1.5-.83,2.26-.4l-.22.38Z"/>
        <path class="cls-5" d="M142.39,24.79c-.22-.08-.44-.06-.59.09-.16.17-.18.42-.04.6.14.19.37.25.61.15l.22.38c-.42.22-.89.1-1.15-.22-.28-.34-.27-.83,0-1.15.28-.35.77-.44,1.17-.23l-.21.38Z"/>
      </g>
    </g>
    <text class="cls-6" transform="translate(5.67 36.19)"><tspan x="0" y="0">THIS DEVICE COMPLIES WITH </tspan><tspan class="cls-28" x="50.9" y="0">P</tspan><tspan x="52.94" y="0">A</tspan><tspan class="cls-12" x="55.22" y="0">RT</tspan><tspan x="59.67" y="0" xml:space="preserve"> 15 OF</tspan><tspan class="cls-36" x="70.16" y="0"> </tspan><tspan x="71.05" y="0">THE FCC RULES, OPER</tspan><tspan class="cls-28" x="109.95" y="0">A</tspan><tspan x="111.98" y="0">TION IS SUBJEC</tspan><tspan class="cls-12" x="138.86" y="0">T</tspan><tspan x="140.9" y="0"> </tspan><tspan class="cls-36" x="0" y="4.12">T</tspan><tspan x="2.03" y="4.12">O</tspan><tspan class="cls-36" x="4.7" y="4.12"> </tspan><tspan x="5.59" y="4.12">THE FOLLOWING</tspan><tspan class="cls-36" x="34" y="4.12"> </tspan><tspan x="34.89" y="4.12">TWO CONDITIONS: (1)</tspan><tspan class="cls-36" x="71.49" y="4.12"> </tspan><tspan x="72.38" y="4.12">THIS DEVICE M</tspan><tspan class="cls-28" x="97.74" y="4.12">A</tspan><tspan class="cls-12" x="99.77" y="4.12">Y</tspan><tspan x="102" y="4.12" xml:space="preserve"> NO</tspan><tspan class="cls-22" x="108.1" y="4.12">T</tspan><tspan x="110.13" y="4.12" xml:space="preserve"> CAUSE HARMFU</tspan><tspan class="cls-38" x="138.53" y="4.12">L</tspan><tspan x="140.32" y="4.12"> </tspan><tspan x="0" y="8.24">INTERFERENCE.</tspan><tspan class="cls-11" x="27.64" y="8.24"> </tspan><tspan x="28.41" y="8.24">AND (2)</tspan><tspan class="cls-36" x="40.8" y="8.24"> </tspan><tspan x="41.69" y="8.24">THIS DEVICE MUS</tspan><tspan class="cls-36" x="71.81" y="8.24">T</tspan><tspan class="cls-11" x="73.84" y="8.24"> </tspan><tspan x="74.61" y="8.24">ACCEP</tspan><tspan class="cls-12" x="86.43" y="8.24">T</tspan><tspan class="cls-11" x="88.46" y="8.24"> </tspan><tspan x="89.23" y="8.24">AN</tspan><tspan class="cls-12" x="94" y="8.24">Y</tspan><tspan x="96.22" y="8.24" xml:space="preserve"> INTERFERENCE </tspan><tspan x="0" y="12.35">RECIEVED. INCLUDING INTERFERENCE</tspan><tspan class="cls-36" x="65.96" y="12.35"> </tspan><tspan x="66.86" y="12.35">TH</tspan><tspan class="cls-35" x="71.43" y="12.35">A</tspan><tspan class="cls-22" x="73.46" y="12.35">T</tspan><tspan x="75.5" y="12.35" xml:space="preserve"> M</tspan><tspan class="cls-2" x="79.31" y="12.35">A</tspan><tspan class="cls-22" x="81.34" y="12.35">Y</tspan><tspan x="83.57" y="12.35" xml:space="preserve"> CAUSE UNDESIRED OPER</tspan><tspan class="cls-28" x="128.18" y="12.35">A</tspan><tspan x="130.22" y="12.35">TION. </tspan><tspan x="0" y="16.47">THIS CLASS B DIGI</tspan><tspan class="cls-28" x="31.27" y="16.47">T</tspan><tspan x="33.11" y="16.47">A</tspan><tspan class="cls-38" x="35.4" y="16.47">L</tspan><tspan class="cls-11" x="37.18" y="16.47"> </tspan><tspan x="37.94" y="16.47">AP</tspan><tspan class="cls-28" x="42.52" y="16.47">P</tspan><tspan x="44.55" y="16.47">AR</tspan><tspan class="cls-35" x="49.32" y="16.47">A</tspan><tspan x="51.36" y="16.47">TUS MEETS</tspan><tspan class="cls-11" x="70.99" y="16.47"> </tspan><tspan class="cls-25" x="71.76" y="16.47">AL</tspan><tspan class="cls-29" x="75.95" y="16.47">L</tspan><tspan x="77.73" y="16.47" xml:space="preserve"> REQUIREMENTS OF</tspan><tspan class="cls-12" x="112.05" y="16.47"> </tspan><tspan x="112.94" y="16.47">THE CANADIAN </tspan><tspan x="0" y="20.59">INTERFERENCE CAUSING EQUIPMEN</tspan><tspan class="cls-36" x="62.53" y="20.59">T</tspan><tspan x="64.57" y="20.59" xml:space="preserve"> REGUL</tspan><tspan class="cls-28" x="77.34" y="20.59">A</tspan><tspan x="79.38" y="20.59">TIONS.</tspan></text>
    <text class="cls-8" transform="translate(46.43 66.87)"><tspan x="0" y="0">MGBC-USA-1</tspan></text>
  </g>
</svg>