<?xml version="1.0" encoding="UTF-8"?>
<svg id="Layer_1" xmlns="http://www.w3.org/2000/svg" version="1.1" viewBox="0 0 153.1 69.2">
  <!-- Generator: Adobe Illustrator 30.1.0, SVG Export Plug-In . SVG Version: 2.1.1 Build 136)  -->
  <defs>
    <style>
      .st0 {
        letter-spacing: 0em;
      }

      .st0, .st1, .st2, .st3, .st4, .st5, .st6, .st7, .st8, .st9 {
        fill: #fff;
      }

      .st0, .st2, .st10, .st5, .st6, .st7, .st8, .st9 {
        isolation: isolate;
      }

      .st0, .st2, .st5, .st6, .st7, .st8, .st9 {
        font-family: Arial-BoldMT, Arial;
        font-weight: 700;
      }

      .st0, .st2, .st6, .st7, .st8, .st9 {
        font-size: 4.9px;
      }

      .st11 {
        fill: #daac06;
      }

      .st12 {
        fill: #00938a;
      }

      .st13 {
        fill: #6eb122;
      }

      .st2 {
        letter-spacing: 0em;
      }

      .st3 {
        fill-rule: evenodd;
      }

      .st14 {
        fill: #b80a41;
      }

      .st4 {
        font-family: InterDisplay-Medium, 'Inter Display';
        font-weight: 500;
        letter-spacing: 0em;
      }

      .st4, .st5 {
        font-size: 4px;
      }

      .st15 {
        letter-spacing: 0em;
      }

      .st6 {
        letter-spacing: 0em;
      }

      .st7 {
        letter-spacing: 0em;
      }

      .st8 {
        letter-spacing: 0em;
      }

      .st16 {
        fill: #4e4ba8;
      }

      .st17 {
        letter-spacing: 0em;
      }

      .st9 {
        letter-spacing: 0em;
      }

      .st18 {
        display: none;
        fill: #e60012;
      }
    </style>
  </defs>
  <g id="Layer_2">
    <rect y="0" width="153.1" height="69.2" rx="3.4" ry="3.4"/>
    <text class="st8" transform="translate(11 16.3)"><tspan x="0" y="0">2023 MouseBiteLabs</tspan></text>
    <text class="st2" transform="translate(6.3 16.3)"><tspan x="0" y="0">©</tspan></text>
    <g class="st10">
      <text class="st0" transform="translate(6.3 22.5)"><tspan x="0" y="0">R</tspan></text>
      <text class="st6" transform="translate(9.9 22.5)"><tspan x="0" y="0">A</tspan></text>
      <text class="st0" transform="translate(13.1 22.5)"><tspan x="0" y="0">TING: DC5V 2.5W</tspan></text>
    </g>
    <text class="st9" transform="translate(5.6 63.1)"><tspan x="0" y="0">MGBC-USA</tspan></text>
    <g class="st10">
      <text class="st9" transform="translate(91.2 63.1)"><tspan x="0" y="0">MADE IN THE USA</tspan></text>
    </g>
    <g class="st10">
      <text class="st9" transform="translate(97.3 9.9)"><tspan x="0" y="0">MODE</tspan></text>
      <text class="st7" transform="translate(111.2 9.9)"><tspan x="0" y="0">L</tspan></text>
      <text class="st9" transform="translate(113.9 9.9)"><tspan x="0" y="0" xml:space="preserve"> NO. MGBC-001</tspan></text>
    </g>
    <text class="st5" transform="translate(108.3 15.7)"><tspan class="st15"><tspan x="0" y="0">Pat. issued and Pend.</tspan></tspan><tspan class="st15" x="-20.9" y="4.8">BATTERY: </tspan><tspan class="st17" x="-.2" y="4.8">: 102045 900mAh LiPo</tspan></text>
    <text/>
    <text/>
  </g>
  <g id="layer1">
    <rect id="rect80" class="st18" x="4.1" y="2.6" width="21.3" height="7.1"/>
    <path id="path29" class="st1" d="M8.5,8.3c-1.3,0-2.2-.9-2.2-2.1h0c0-1.1.9-2.1,2.2-2.1h12.4c1.3,0,2.2.9,2.2,2.1h0c0,1.1-.9,2.1-2.2,2.1h-12.4ZM8.5,4.6c-1,0-1.7.7-1.7,1.6h0c0,.9.6,1.6,1.7,1.6h12.4c1,0,1.7-.7,1.7-1.6h0c0-.9-.6-1.6-1.7-1.6h-12.4ZM21.5,5.4c0,0,.1,0,.1,0s0,0,0,0h0c0,.1,0,.1,0,.1h0c0-.1,0-.1,0-.1h0c0,.1,0,.1,0,.1v-.3h.1ZM21.5,5.2c-.2,0-.3.1-.3.3s.1.3.3.3.3-.1.3-.3-.1-.3-.3-.3ZM21.8,5.5c0,.1-.1.2-.2.2s-.2-.1-.2-.2.1-.2.2-.2.2.1.2.2ZM21.5,5.5h0s0,0,0,0,0,0,0,0h0,0ZM14.7,6.3c0-.1,0-.2,0-.3,0,0,.1-.1.2-.1h0c0,0,.2,0,.2.1,0,0,0,.1,0,.3h-.5ZM15.2,6.7s0,0,0,0c0,.2-.2.3-.2.3s-.2,0-.2-.3,0-.3,0-.3c0,0,1.1,0,1.1,0,0-.4-.4-.7-.9-.7s-.9.3-.9.7.4.7.9.7.7-.2.8-.5h-.6ZM17.1,5.8c.2,0,.7.1.7.6,0,0,0,.7,0,.7h-.6v-.8c0-.1-.1-.2-.3-.2s-.3.1-.3.2,0,.8,0,.8h-.6v-1.3s.6,0,.6,0c0,0,0,.1,0,.1.1-.1.3-.2.5-.2h0ZM12.3,5.8c.2,0,.7.1.7.6,0,0,0,.7,0,.7h-.6v-.8c0-.1-.1-.2-.3-.2s-.3.1-.3.2,0,.8,0,.8h-.6v-1.3s.6,0,.6,0c0,0,0,.1,0,.1.1-.1.3-.2.5-.2h0ZM19,5.2h.6v1.9h-.6s0,0,0,0c-.2.1-.5.1-.7,0,0,0-.4-.2-.4-.6s.3-.7.7-.7c.1,0,.2,0,.3.1,0-.3,0-.7,0-.7h0ZM19,6.5v-.2c0-.2-.1-.3-.2-.3s-.2,0-.2.3,0,.2,0,.2c0,0,0,.2,0,.2,0,.2.1.3.2.3s.2,0,.2-.3,0-.2,0-.2h0ZM20.8,6.5s0,.2,0,.3c0,.2-.1.3-.2.3s-.2,0-.2-.3,0-.3,0-.3c0,0,0-.2,0-.3,0-.2.1-.3.2-.3s.2,0,.2.3,0,.2,0,.3h0ZM20.6,5.8c-.5,0-.9.3-.9.7s.4.7.9.7.9-.3.9-.7-.4-.7-.9-.7ZM10.3,5.6v-.4h.6v.4h-.6ZM10.3,7.2v-1.3h.6v1.3h-.6ZM13.3,7.2v-1.3s-.3,0-.3,0v-.2h.3s0-.3,0-.3h.6v.3h.3v.2h-.3v1.3s-.6,0-.6,0ZM8,7.2v-1.9h.6l.8,1.4v-1.4s.6,0,.6,0v1.9h-.6l-.8-1.4v1.4h-.6Z"/>
  </g>
  <text class="st4" transform="translate(6 33.6)"><tspan x="0" y="0">This device complies with Part 15 of the FCC rules, operation is subject to the </tspan><tspan x="0" y="4">following two conditions: (1) this device may not cause harmful interference. And (2) </tspan><tspan x="0" y="8">this device must accept any interference recieved. Including interference that may </tspan><tspan x="0" y="12">cause undesired operation.</tspan><tspan x="0" y="16">This class B digital apparatus meets all requirements of the Canadian interference </tspan></text>
  <g id="layer11" data-name="layer1">
    <g id="g4583">
      <g id="g4816">
        <path id="path4644-6" class="st3" d="M29.3,3.8c-1.2,0-2.9.6-3.1,2.6-.2,1.5,1.2,2.3,2.1,2.3.4,0,1.1-.2,1.4-.5l.2-1.7h-1.4v.6c0,0,.6,0,.6,0v.6c-.2.2-.7.3-.9.3-.6,0-1.3-.5-1.3-1.6,0-1.1,1.4-2.5,3.3-1.8v-.7c-.2,0-.5-.1-.9-.1Z"/>
        <path id="_44104296-3-2" class="st3" d="M44.5,3.8l-.7,4.7h1.1c.9,0,1.7-.1,1.9-1.3.1-.7-.4-1.1-.6-1.3.2-.1.3,0,.4-.8,0-.7-.6-1.3-1.1-1.3h-1.1ZM45.1,4.5h.4c.4,0,.6.4.5.5,0,.2-.2.6-.8.6h-.2l.2-1.1ZM44.8,6.3h.6c.5,0,.8.6.8.9,0,.2-.2.7-1.1.7h-.5l.2-1.6Z"/>
        <path id="path4686-9" class="st3" d="M49.4,3.7c-.7,0-1.5.4-2,2-.6,1.8.2,2.6,1,2.8.8.2,2-.2,2.4-1.9.4-1.7-.2-2.7-1.2-2.9,0,0-.2,0-.3,0h0ZM49.5,4.4s0,0,0,0c.3,0,1,.4.7,2-.4,1.6-1.3,1.6-1.6,1.5-.3,0-.9-.4-.5-1.8.3-1.3,1-1.7,1.4-1.7h0Z"/>
        <path id="_43441624-7-1" class="st3" d="M42.4,8.5v-.7c0,0-2.2,0-2.2,0l.2-1.4h1.5v-.7c0,0-1.4,0-1.4,0l.2-1.2h1.7v-.7c0,0-2.3,0-2.3,0l-.6,4.7h3Z"/>
        <path id="_43443024-5-2" class="st3" d="M51.7,3.8l.9,1.7,1.2-1.7h.9l-1.8,2.3-.3,2.3h-.7l.3-2.3-1.2-2.3h.8Z"/>
        <path id="path4642-3-7" class="st3" d="M33.9,8.5h.7l1.1-3.1.9,3.1,1.6-3.1v3.1h.8V3.9h-.7l-1.5,2.8-.7-2.8h-.6l-1.5,4.6Z"/>
        <path id="path4739-0" class="st1" d="M32.2,3.9l-2.1,4.7h.8l.6-1.3h1.3l.2,1.3h.7l-.8-4.7h-.6ZM32.3,5.2l.3,1.4h-.9l.6-1.4Z"/>
      </g>
      <path id="path4572" class="st1" d="M55.9,6.2v-2.4h14.3v4.7h-6.8c-7.1,0-6.9,0-6.8,0,0,0,0,0,0-.1,0,0,0-.2,0-.3s0-.3,0-.3c0,0,0,0,0,0,0,0,.2.1.3.1,0,0,.1,0,.2,0,.2,0,.2,0,.3,0,0,0,.1,0,.2,0,0,0,.1,0,.1-.1,0,0,.2-.2.2-.3,0-.2,0-.2.1-.4,0,0,0-.2,0-.3,0-.2-.1-.4-.2-.5,0,0,0,0,0,0s0,0,0,0,0,0,0,0,0,0,0,0c-.1,0-.4,0-.5,0-.2,0-.2,0-.3.1,0,0-.2,0-.3,0-.1,0-.2,0-.2,0,0,0,0,.3,0,.5,0,0,0,0,0,0,0,0,0,.2,0,.3,0,.1,0,.3,0,.3,0,0,0,0,0,0,0,.1,0,.6-.1.9,0,0,0,.1,0,.1,0,0,0,0,0,0,0,0,0,0,0,0s0,0,0,0c0,0,0,0,0,0h0v-2.4ZM59.5,7.9c.2,0,.2,0,.3-.1,0,0,0,0,0,0,0,0,0,0,.2-.2,0,0,.1-.1.1-.1s0,0,0,0c0,0,0-.1,0-.1,0,0,0,0,0,0,0,0,0,0,0,0,0,0,0,0,0-.1,0,0,0-.4,0-.5,0-.1-.1-.3-.2-.4,0,0,0,0,0,0s0,0,0,0c0,0,0,0-.1,0,0,0,0,0,0,0-.1,0-.4,0-.6,0-.2,0-.3.1-.5.3,0,0-.2.3-.2.4s0,0,0,0c0,0,0,.3,0,.3,0,0,0,0,0,0,0,0,0,0,0,.1,0,.1,0,.2,0,.3,0,0,0,0,0,0,0,0,.3.3.3.3s0,0,0,0,0,0,0,0c0,0,0,0,0,0,0,0,.1,0,.2,0,.1,0,.2,0,.3,0h0ZM59.2,7.5c-.1,0-.2,0-.2-.2,0-.2,0-.3,0-.6,0,0,0,0,0,0,0,0,0,0,0-.2,0,0,.2-.2.2-.2,0,0,0,0,.1,0,0,0,0,0,0,0,0,0,0,0,0,0,0,0,0,0,0,0,0,0,0,0,0,0s0,0,0,0,0,0,0,0c0,0,0,.1,0,.2,0,.3,0,.7-.2.8,0,0-.1.1-.2.1,0,0,0,0,0,0,0,0,0,0,0,0h0ZM61.7,7.9c0,0,.2,0,.3-.2,0,0,.1-.1.1-.1s0,0,0,0c0,0,0,0,0,0s0,0,0,0c0,0,0,0,0,0,0,0,0,0,0,0,0,0,0,0-.3,0-.3,0-.3,0-.3,0,0,0,0,0,0,0,0,0,0,.2-.1.2,0,0-.2.1-.3,0,0,0,0,0-.1-.1,0,0,0,0,0-.2,0,0,0-.1,0-.2,0,0,0-.3,0-.3,0,0,0,0,0,0,0,0,0-.2,0-.2,0,0,0,0,0,0,0,0,0-.1.1-.2,0,0,.2-.1.3,0,0,0,.1,0,.2.2,0,0,0,0,0,0,0,0,.3,0,.4,0,0,0,0,0,0,0,0,0,.1,0,.1,0,0,0,0,0,0,0,0,0,0,0,0-.1,0-.2,0-.2-.2-.3,0,0-.2-.1-.2-.1,0,0,0,0,0,0-.1,0-.2,0-.4,0-.1,0-.3,0-.4.1,0,0,0,0,0,0s0,0,0,0c0,0,0,0,0,0,0,0-.2.2-.2.3,0,.1-.1.3-.1.4,0,0,0,0,0,0,0,0,0,0,0,.2,0,.2,0,.3,0,.4,0,0,0,0,0,0s0,0,0,0,0,0,0,0c0,0,.1.1.2.2,0,0,0,0,0,0,0,0,0,0,.1,0,0,0,0,0,0,0,0,0,.2,0,.3,0h0ZM65.7,7.8c.2,0,.2,0,.3-.1,0,0,0,0,0,0,0,0,.3-.3.3-.3,0,0-.1,0-.2,0-.2,0-.2,0-.3,0,0,0-.1.1-.3.1,0,0-.1,0-.2,0,0,0,0,0,0,0s0,0,0,0c0,0,0,0,0-.2,0,0,0-.1,0-.1,0,0,0,0,0,0,0,0,0,0,0,0,0,0,.2,0,1,0,0,0,0,0,0,0s0,0,0,0c0,0,0,0,0,0s0,0,0,0c0,0,0,0,0-.2,0-.2,0-.2,0-.3,0,0,0-.1,0-.2,0,0,0,0,0,0,0,0-.1-.1-.2-.1s0,0,0,0,0,0,0,0,0,0,0,0,0,0,0,0c0,0,0,0,0,0-.1,0-.3,0-.4,0-.2,0-.3,0-.4.1,0,0,0,0,0,0,0,0-.3.3-.4.4,0,0,0,0,0,0s0,0,0,0c0,.1,0,.4,0,.6,0,.1,0,.4.1.5,0,0,0,0,0,0s0,0,0,0,0,0,0,0,0,0,0,0c0,0,.2,0,.2,0s0,0,0,0c0,0,0,0,.1,0,0,0,0,0,.1,0,0,0,.3,0,.4,0h0ZM65.2,6.6c0,0,0-.2.1-.3,0,0,.1,0,.2,0,.1,0,.2,0,.3,0,0,0,0,.2,0,.3,0,0,0,0-.4,0h-.3s0,0,0,0ZM67.6,7.9c0,0,.2,0,.2,0,0,0,0,0,0,0,0,0,0-.1,0-.1h0c0,0-.1,0-.1,0-.2,0-.2,0-.2,0,0,0,0-.2,0-.6,0-.2,0-.3,0-.3,0,0,0,0,0,0,0,0,0,0,0,0s0,0,0,0c0,0,0,0,.2,0,.1,0,.2,0,.2,0,0,0,0-.3,0-.3,0,0,0,0-.2,0-.2,0-.2,0-.2,0,0,0,0,0,0,0,0,0,0,0,0-.1,0,0,0,0,0-.1,0,0,0,0,0-.1,0,0,0,0,0,0,0,0-.2,0-.3,0,0,0-.2,0-.2,0,0,0,0,0,0,.2,0,0,0,0,0,0,0,0,0,0,0,0,0,0-.1,0-.3,0,0,0,0,0,0,0,0,0,0,.3,0,.3,0,0,0,0,.2,0,0,0,.2,0,.2,0,0,0,0,0,0,.2,0,.1,0,.2,0,.2,0,0,0,0,0,0s0,0,0,0,0,0,0,0c0,0,0,.4,0,.4,0,0,0,0,0,0,0,.2,0,.3.1.4.1,0,.3,0,.6,0h0ZM63.2,7.8s0-.2,0-.3c0-.4,0-.5,0-.4,0,0,0,0,0,0s0,0,0,0,0,0,0,0c0,0,0,0,0,0,0,0,0,0,0,0,0,0,0,0,0,0s0,0,0,0c0,0,0,0,0,0s0,0,0,0,0,0,0,0c0,0,0,0,.1,0,0,0,.1,0,.2,0,0,0,.2,0,.2,0,0,0,0,0,0,0,0,0,0,0,0,0,0,0,0-.1-.1-.2,0,0,0,0,0,0,0,0,0,0,0,0s0,0,0,0,0,0,0,0c0,0,0,0,0,0s0,0,0,0,0,0,0-.1c0,0,0,0,0,0s0,0,0,0,0,0,0,0,0,0,0,0,0,0,0,0c0,0,0,0,0,0,0,0,.1-.1.1-.1s0,0,0,0,0,0,0,0,0,0,.1,0c0,0,0,0,.1,0s0,0,0,0,0,0,.1,0c.1,0,.2-.1.2-.2,0,0,0,0,0,0,0,0,0,0,0,0,0,0-.1,0-.3,0h-.3s0,0,0,0c0,0,0,0,0,0s0,0,0,0c0,0,0,0,0,0s0,0-.1,0c0,0-.1,0-.1,0s0,0,0,0c0,0,0,0,0,0,0,0,0,0,0-.3,0-.1,0-.2,0-.2,0,0,0,0,0,0,0,0,0-.1,0-.3,0-.1,0-.2,0-.2h0c0,0,0,0,0,0,0,0,0,0-.1,0-.2,0-.2,0-.3,0,0,0,0,.1-.1.3,0,.1,0,.2,0,.3,0,0,0,.2,0,.4,0,.2,0,.3,0,.3,0,0,0,.2,0,.4,0,.2,0,.4,0,.4,0,0,0,0,0,0,0,0,0,0,0,0,0,.1,0,.2,0,.3,0,0,0,.2,0,.2,0,0,.5,0,.5,0h0ZM57,7.5c-.2,0-.3-.2-.3-.4,0-.1,0-.2,0-.2,0,0,0,0,0,0,0,0,0-.1,0-.2.1-.1.2-.2.4-.2.2,0,.3.1.3.4,0,.1,0,.3,0,.4,0,.2-.2.3-.4.3,0,0,0,0-.1,0h0Z"/>
    </g>
  </g>
  <g>
    <path id="path14" class="st16" d="M78.4,7s-.3.5-.9.4c-.7,0-.8-.7-.8-.7,0,0,0-.5.3-.9.4-.4.9-.3.9-.3,0,0,.3,0,.5.6.2.7,0,.9,0,.9h0ZM79.4,5.7c0-.3-.3-.5-.3-.5,0,0-.4-.5-1.1-.6-.6-.1-1.1.1-1.1.1,0,0-.4.2-.8.5-.5.5-.7,1.2-.7,1.2,0,0-.2.6.1,1.1l.3.4c.5.4,1,.4,1,.4,0,0,.4,0,.9,0,.4,0,.7-.3.7-.3,0,0,.7-.4.9-1.2v-1.2"/>
    <path id="path16" class="st11" d="M84.3,7.2c-.8.5-1.3,0-1.3,0,0,0-.2-.1-.3-.6,0-.5.5-.8.5-.8,0,0,.3-.2.6-.1.3,0,.4,0,.7.2.3.2.2.4.2.4,0,0,0,.6-.5.9h0ZM85.6,5.6c-.5-.8-1.3-.9-1.3-.9,0,0-.3,0-.8,0-1.1.2-1.5,1-1.5,1,0,0-.4.6-.2,1.3l.5.9c.3.3.5.3.5.3.5.2,1,0,1,0,0,0,.7,0,1.3-.5.5-.4.7-.9.7-.9v-1.4"/>
    <path id="path18" class="st12" d="M86.8,5.7v-.7c0,0,.4,0,.7,0,.4,0,.4.2.4.2,0,0,0,.1-.3.3-.3.2-.7.2-.7.2h0ZM85.7,7s0,.4,0,.5c0,.2,0,.4,0,.4,0,0,0,.6.6.7.5,0,.5-.4.5-.6,0-.1,0-.7,0-.7l.6.5s.4.4.7.6c.3.2.3.3.3.3,0,0,0,0,.3,0,.2,0,.3-.1.3-.1,0,0,.2-.1.2-.4,0-.3-.2-.4-.2-.4,0,0-.8-.7-1.4-1.2.4-.2.6-.4.6-.4,0,0,.5-.4.7-.9.2-.6-.3-.8-.3-.8,0,0-.3-.2-.5-.3-.6-.3-1.2-.2-1.2-.2,0,0-.8,0-1.3.6-.2.3,0,.7,0,.7,0,0,0,0,0,.4.1.6.1,1.4.1,1.4"/>
    <path id="path20" class="st13" d="M81.8,7c-.2,0-.6,0-.6,0,0,0-.5.2-.6.2,0,0,0-.9,0-1.2,0-.6,0-1.1,0-1.1,0,0,0-.6-.3-.9-.4-.4-.6-.2-.8-.1-.3.3-.2.7-.2.7l.2.5s0,.2,0,.6v1.2c0,.2.2,1.2.2,1.2,0,0,0,.4.4.4.3,0,.7-.1.8-.2.1,0,.3-.1.3-.1,0,0,.2,0,.3,0,.4,0,.5-.1.5-.1,0,0,.1,0,.2-.2,0-.1.2-.8-.5-.9"/>
    <path id="path22" class="st14" d="M75.7,7.6c-.2,0-.5,0-.5,0,0,0-.8,0-1.2,0-.6-.1-.6-.8-.6-.8,0,0,0-.5.4-1.1.5-.8,1-.9,1-.9,0,0,.1,0,.3,0,0,.4.5.4.5.4,0,0,.6,0,.6-.7,0-.6-.7-.7-.9-.8-.7-.1-1.2.3-1.2.3,0,0-.5.3-1.1,1.2-.4.6-.5,1-.5,1,0,0,0,.1,0,.6,0,.4.1.7.1.7,0,0,.2.7.9.9.4.2,1,.2,1,.2,0,0,.6,0,1,0,.2,0,.4-.1.4-.1,0,0,.3-.2.2-.5,0,0,0-.3-.3-.4"/>
  </g>
  <g>
    <path class="st1" d="M139.9,52.7s0,0-.2,0c-.3,0-1.5,0-1.9,0-.2,0-.5,0-.7,0-.5,0-.9,0-1.2,0-.1,0-.3,0-.3,0,0,0-.3,0-.3,0,0,0,0,0,0,0s0,0-.1,0c0,0-.1.2-.2.3,0,.1-.2,1.2-.2,2.1,0,.2,0,.6,0,.8,0,.5,0,2.2,0,2.6,0,.2,0,.6,0,.8,0,1,0,1.5.2,1.6,0,.1.2.3.4.4,0,0,0,0,.1,0,0,0,.2,0,.5,0,0,0,.2,0,.2,0,0,0,.3,0,.8,0,.6,0,1.5.1,2.1.1.3,0,.5,0,.5,0,0,0,4.1,0,4.1,0,0,0,.2,0,.4,0,.4,0,1,0,1.4,0,.1,0,.3,0,.4,0,0,0,.2,0,.2,0,0,0,.2,0,.3,0,.2,0,.3,0,.4-.1.1,0,.3-.2.3-.3,0-.2.1-.6.2-1.2,0-.2,0-.5,0-.7,0-.2,0-.7,0-1,0-.6,0-.7,0-.7s0-.2,0-1,0-1,0-1,0,0,0-.1c0-.2,0-1.2,0-1.5,0-.1,0-.4,0-.5,0-.3,0-.3,0-.4-.2-.3-.4-.4-.8-.4,0,0-.2,0-.2,0-.3,0-1.9-.2-2.9-.2-.9,0-1.1,0-1.1,0s-.2,0-1,0-1,0-1,0ZM142.4,53.2c.2,0,.5,0,.8,0,.4,0,.7,0,1.2,0,.1,0,.4,0,.5,0s.4,0,.4,0c0,0,.3,0,.4,0,.4,0,.5,0,.6,0,.1,0,.2,0,.2.2,0,.2,0,.6.1,1.1,0,.2,0,.4,0,.4,0,0,0,1.3,0,2,0,1.1,0,2.4-.1,2.9,0,.1,0,.3,0,.4,0,.6,0,.8-.2.9,0,0-.2.1-.4.1-.1,0-.3,0-.4,0-.5,0-.7,0-.9,0-.1,0-.4,0-.6,0-1.5,0-3.9,0-5.4,0-.2,0-.5,0-.6,0s-.4,0-.5,0c-.2,0-.5,0-.9,0-.1,0-.3,0-.4,0s-.2,0-.3,0c-.4,0-.4,0-.5-.1-.1,0-.1,0-.2-1.1,0-.2,0-.5,0-.7,0-.5,0-2.6,0-3.2,0-.3,0-.7,0-.9,0-.4,0-.6,0-1.1,0-.1,0-.3,0-.4,0-.4.1-.5.4-.5.4,0,.7,0,.8,0,0,0,.3,0,.5,0,.2,0,.3,0,.4,0,0,0,.3,0,.5,0,.3,0,.7,0,.8,0,.4,0,3.2,0,3.6,0h0Z"/>
    <path class="st1" d="M139.9,54.1c-.2,0-.7,0-1.1,0-1.5,0-2.1,0-2.2.1,0,0,0,0-.1,0,0,0-.2.1-.2.2,0,0,0,.2-.1.2,0,.1,0,.8,0,1.4,0,.3,0,.8,0,1,0,.5,0,.5,0,1.9,0,.9,0,1,.2,1.2,0,0,.2.2.3.2,0,0,.4,0,.6,0,0,0,.3,0,.4,0,.6,0,2.4.1,3.3.1s2.8,0,3.4,0c.5,0,.9,0,1-.1,0,0,0,0,0,0,0,0,.3-.2.3-.2,0,0,0,0,0-.1,0-.1,0-.4.1-1,0-.4,0-.8,0-2.3,0-1.6,0-1.8,0-2,0-.2,0-.4-.2-.5-.1-.1-.4-.2-.7-.2s-.2,0-.4,0c-.4,0-.9,0-1.5,0-.3,0-.7,0-1,0-.6,0-1.5,0-2.1,0h0ZM143,54.7c.3,0,.6,0,.7,0s.3,0,.5,0c.2,0,.3,0,.3,0,0,0,.1,0,.3,0,.2,0,.3,0,.3,0,0,0,0,0,0,0,0,0,.1,0,.2.2,0,.2,0,4.1,0,4.8,0,.4,0,.4-.7.4-1.1.1-4.7.1-6.2,0-.6,0-1.3,0-1.5-.1-.2,0-.3-.1-.3-.5,0-.2,0-.5,0-.7,0-.5,0-2.1,0-2.6,0-.2,0-.6,0-.8,0-.5,0-.7.2-.7,0,0,.3,0,.6,0,.2,0,.4,0,.5,0,.7,0,3.4-.1,4.2,0,.2,0,.6,0,.9,0h0Z"/>
    <path class="st1" d="M141.9,55.5c-.4,0-.8.2-1.1.6-.2.2-.3.4-.5.7-.2.4-.2,1.1,0,1.5,0,0,0,0,0,.1,0,.2.2.4.4.6.2.2.3.3.5.4.3.1.4.2.8.2.4,0,.6,0,.9-.2h.1c0,0,0-.2,0-.2,0,0,0-.1,0-.1,0,0,0,0,0-.1,0,0,0,0,0,0s0,0-.1,0c0,0-.1,0-.2,0s0,0,0,0c0,0-.5,0-.6,0-.3,0-.5-.2-.7-.4-.1-.1-.3-.3-.3-.4,0,0,0-.3-.1-.4,0-.2,0-.7,0-.7s0,0,0,0c0,0,.1-.3.2-.3,0,0,0,0,0,0,0,0,.2-.3.3-.3.2-.2.4-.2.7-.3.1,0,.2,0,.4,0,.1,0,.2,0,.2,0s0,0,0,0,0,0,.1,0h.1c0,0,0,0,0,0,.1-.2.2-.3.2-.3s-.2-.1-.4-.2c0,0-.5,0-.6,0,0,0-.1,0-.2,0h0ZM137.8,55.9s0,.7,0,1.5v1.5h.2c.1,0,.3,0,.4,0h.2s0-.2,0-.2c0,0,0-.2.1-.2,0,0,0,0,0-.1,0,0,0,0,0,0s0,0,0,0c0,0,0,0,0-.1,0,0,0-.1,0-.2.1-.2.2-.4.3-.5,0,0,0-.1,0-.1s0,0,0-.2c0,0,0-.2,0-.2s0,0,0,0,0,0,0,0c0,0,0,0,0-.1,0,0,0-.1,0-.1,0,0,0-.1.1-.2,0,0,.1-.2.1-.2s0,0,0-.2c0,0,0-.2,0-.2,0,0,0,0-.3,0h-.4c0,.2,0,.2,0,.3,0,0,0,0,0,0,0,0,0,.1,0,.2,0,0,0,.2-.1.3,0,0,0,.1,0,.2,0,0,0,0,0,.1-.2.3-.2.4-.2.4,0,0,0,0,0,.1,0,0,0,.2-.1.2,0,0,0,.1,0,.2,0,0,0,0,0,0s0,0,0,.1c0,.1-.1.2-.1.2,0,0,0-.6,0-1.2v-1.2s-.2,0-.2,0c-.1,0-.2,0-.2,0ZM143.6,56s0,.7,0,1.5v1.5h.5v-3h-.2c-.2,0-.2,0-.2,0Z"/>
    <path class="st1" d="M142,56.5c-.4,0-.6.3-.7.7,0,.2,0,.5,0,.7,0,.2.4.4.5.5,0,0,0,0,0,0,0,0,.4,0,.6,0,.2,0,.2,0,0-.2,0,0,0-.2-.1-.2,0,0-.1,0-.1,0s-.2,0-.3,0c0,0-.3-.2-.3-.3s0,0,0,0,0,0,0-.1c0-.3.3-.5.6-.5,0,0,0,0,.1,0,0,0,0,0,.1-.1,0,0,0-.1,0-.1s0,0,0,0c0,0,0-.2,0-.2,0,0-.2,0-.3,0-.1,0-.3,0-.4,0h0Z"/>
  </g>
</svg>