<?xml version="1.0" encoding="UTF-8"?>
<svg id="Layer_2" data-name="Layer 2" xmlns="http://www.w3.org/2000/svg" viewBox="0 0 155.91 70.02">
  <defs>
    <style>
      .cls-1 {
        letter-spacing: -.02em;
      }

      .cls-2 {
        letter-spacing: .29em;
      }

      .cls-3 {
        letter-spacing: 1.21em;
      }

      .cls-4 {
        fill: #333;
      }

      .cls-5 {
        letter-spacing: .29em;
      }

      .cls-6 {
        letter-spacing: -.06em;
      }

      .cls-7 {
        letter-spacing: -.05em;
      }

      .cls-8 {
        letter-spacing: -.02em;
      }

      .cls-9 {
        letter-spacing: -.07em;
      }

      .cls-10, .cls-11, .cls-12, .cls-13, .cls-14, .cls-15, .cls-16 {
        fill: #fff;
      }

      .cls-11 {
        font-size: 4px;
      }

      .cls-11, .cls-14, .cls-17, .cls-15, .cls-16, .cls-18 {
        font-family: Arial-BoldMT, Arial;
        font-weight: 700;
      }

      .cls-19 {
        letter-spacing: .29em;
      }

      .cls-20 {
        letter-spacing: .04em;
      }

      .cls-21 {
        letter-spacing: 1.21em;
      }

      .cls-22 {
        fill: #b81e44;
      }

      .cls-23, .cls-24 {
        fill: none;
      }

      .cls-25 {
        letter-spacing: 1.11em;
      }

      .cls-26 {
        letter-spacing: -.05em;
      }

      .cls-27 {
        letter-spacing: -.02em;
      }

      .cls-28 {
        letter-spacing: -.07em;
      }

      .cls-12, .cls-29 {
        font-family: ArialMT, Arial;
      }

      .cls-12, .cls-13, .cls-16 {
        font-size: 3.5px;
      }

      .cls-30 {
        letter-spacing: .04em;
      }

      .cls-31 {
        font-family: KozGoPr6N-Medium-90ms-RKSJ-H, 'Kozuka Gothic Pr6N';
        font-weight: 500;
      }

      .cls-13 {
        isolation: isolate;
      }

      .cls-32 {
        letter-spacing: -.02em;
      }

      .cls-33 {
        fill: #6cb144;
      }

      .cls-34 {
        letter-spacing: -.09em;
      }

      .cls-35 {
        letter-spacing: .02em;
      }

      .cls-36 {
        letter-spacing: 0em;
      }

      .cls-37 {
        letter-spacing: -.05em;
      }

      .cls-38 {
        letter-spacing: -.02em;
      }

      .cls-39 {
        fill: #504ea1;
      }

      .cls-40 {
        letter-spacing: -.02em;
      }

      .cls-41, .cls-17 {
        letter-spacing: 0em;
      }

      .cls-42 {
        letter-spacing: 0em;
      }

      .cls-43 {
        letter-spacing: -.05em;
      }

      .cls-44 {
        letter-spacing: .25em;
      }

      .cls-45 {
        fill: #d9ac28;
      }

      .cls-14 {
        font-size: 2.5px;
        letter-spacing: -.05em;
      }

      .cls-46 {
        fill: #08948b;
      }

      .cls-15 {
        font-size: 6px;
        letter-spacing: -.05em;
      }

      .cls-47 {
        letter-spacing: .29em;
      }

      .cls-48 {
        letter-spacing: .25em;
      }

      .cls-49 {
        letter-spacing: -.04em;
      }

      .cls-50 {
        letter-spacing: .04em;
      }

      .cls-51 {
        letter-spacing: -.06em;
      }

      .cls-24 {
        stroke: #fff;
        stroke-miterlimit: 10;
        stroke-width: .25px;
      }

      .cls-52 {
        letter-spacing: -.04em;
      }
    </style>
  </defs>
  <g id="Layer_1-2" data-name="Layer 1">
    <rect class="cls-4" x="0" y=".57" width="155.9" height="69.45" rx="3.33" ry="3.33"/>
    <g>
      <path id="path24" class="cls-10" d="M37.75,8.9l-.26-1.35-.6,1.35h.87ZM47.23,12.34h-1.43l-.19-4.31-1.86,4.31h-.95l-.79-3.9-1.24,3.9h-2.43l-.37-2.08h-1.65l-.94,2.08h-1.49l3.07-6.96h1.76l.94,5.63,1.83-5.63h1.41l.7,3.82,1.62-3.82h1.72l.3,6.96"/>
      <path id="path26" class="cls-10" d="M51.34,12.34l.24-1.49h-2.5l.2-1.24h2.17l.24-1.49h-2.19l.19-1.24h2.5l.24-1.49h-3.96l-1.11,6.96h3.99"/>
      <path id="path28" class="cls-10" d="M69.92,5.37h-1.67l-1.42,2.27-.89-2.27h-1.64l1.69,3.67-.52,3.29h1.43l.44-2.91,2.58-4.05"/>
      <path id="path30" class="cls-10" d="M61.43,11.01c.76.34,1.68-.33,2.07-1.48.39-1.16.09-2.37-.67-2.71-.76-.34-1.68.33-2.07,1.48-.39,1.16-.09,2.37.67,2.71h0ZM59.26,8.26c.44-1.93,2.09-3.19,3.68-2.82,1.59.37,2.51,2.22,2.07,4.15-.44,1.93-2.09,3.19-3.68,2.82-1.59-.37-2.51-2.22-2.07-4.15"/>
      <path id="path32" class="cls-10" d="M30.82,5.99c-1.36.84-2.02,2.13-1.84,3.88.2,2.03,2.83,3.31,5.06,2.02.19-.11.12-.09.19-.16l.45-2.83h-2.66l-.2,1.3h1.11l-.13.7c-.64.25-1.72.16-2.18-.67-.29-.52-.56-1.69.67-2.77,1-.87,2.73-1.03,3.74-.57,0,0,.13-.73.22-1.42-1.92-.67-3.42-.11-4.42.51"/>
      <path id="path34" class="cls-10" d="M54.59,5.41l-1.1,6.91h3.22c1.33,0,3.26-1.95,1.5-3.55,1.81-1.88.02-3.35-.95-3.36-.77-.01-2.68,0-2.68,0h.02ZM55.38,9.59h1.2c1.14,0,1.1,1.39-.16,1.39h-1.26l.22-1.39h0ZM55.83,6.88h.93c1.01,0,.8,1.29-.16,1.29h-.99l.22-1.29"/>
      <path id="path36" class="cls-10" d="M68.2,12.98h-.27l.23-.96h-.39l.05-.21h1.05l-.05.21h-.39l-.23.96"/>
      <path id="path38" class="cls-10" d="M69.99,12.98h-.25l.23-.98h0l-.47.98h-.26v-.98h0l-.23.98h-.25l.27-1.17h.39l.02.92h0l.45-.92h.39l-.27,1.17"/>
    </g>
    <line class="cls-23" x1="65.73" y1="14.18" x2="65.67" y2="14.4"/>
    <line class="cls-23" x1="66.83" y1="13.65" x2="66.66" y2="13.92"/>
    <line class="cls-23" x1="68.08" y1="12.3" x2="68.11" y2="12.54"/>
    <g id="layer1">
      <path id="path29" class="cls-10" d="M7.09,10.5c-1.8,0-3.01-1.28-3.01-2.83h0c0-1.55,1.21-2.84,3.01-2.84h17c1.8,0,3.01,1.29,3.01,2.84h0c0,1.55-1.21,2.83-3.01,2.83H7.09ZM7.1,5.52c-1.43,0-2.31.96-2.31,2.14h0c0,1.18.87,2.14,2.31,2.14h16.98c1.43,0,2.31-.96,2.31-2.14h0c0-1.18-.88-2.14-2.31-2.14H7.1ZM24.99,6.52c.13,0,.19.04.19.13,0,.06-.04.11-.1.12l.1.2h-.12l-.09-.19h-.05v.19h-.11v-.46h.18ZM24.98,6.34c-.23,0-.41.18-.41.41s.18.41.41.41.41-.18.41-.41-.18-.41-.41-.41ZM25.32,6.75c0,.18-.15.33-.33.33s-.33-.15-.33-.33.15-.33.33-.33.33.15.33.33ZM24.93,6.72h.05c.06,0,.09-.02.09-.06s-.03-.07-.1-.07h-.05v.13ZM15.64,7.84c0-.16,0-.26.05-.35.06-.11.18-.16.28-.16h0c.1,0,.22.05.28.16.05.09.05.19.05.35h-.67ZM16.31,8.37s0,0,0,.11c0,.32-.21.4-.33.4s-.34-.07-.34-.4c0-.1,0-.37,0-.37,0,0,1.51,0,1.51,0,0-.55-.53-1.01-1.18-1.01s-1.18.45-1.18,1,.53,1,1.18,1c.54,0,1-.31,1.14-.73h-.8ZM18.84,7.13c.3,0,.91.19.9.89,0,.12,0,.97,0,.97h-.8v-1.17c0-.15-.15-.33-.37-.33s-.38.17-.38.33c0,.08,0,1.17,0,1.17h-.8v-1.77s.8,0,.8,0c0,0,0,.14,0,.19.15-.15.37-.26.64-.27h0ZM12.31,7.13c.3,0,.91.19.9.89,0,.12,0,.97,0,.97h-.8v-1.17c0-.15-.15-.33-.37-.33s-.38.17-.38.33c0,.08,0,1.17,0,1.17h-.8v-1.77s.8,0,.8,0c0,0,0,.14,0,.19.15-.15.37-.26.64-.27h0ZM21.47,6.32h.79v2.67h-.79s0-.09,0-.1c-.31.19-.65.19-.92.07-.07-.03-.55-.26-.55-.88,0-.47.44-.98,1.02-.93.19.02.33.09.45.16,0-.41,0-.98,0-.98h0ZM21.48,8.1v-.32c0-.27-.19-.34-.31-.34s-.31.07-.31.34c0,.09,0,.32,0,.32,0,0,0,.22,0,.32,0,.27.19.35.31.35s.31-.07.31-.35c0-.11,0-.31,0-.31h0ZM24.02,8.09s0,.27,0,.38c0,.28-.17.4-.33.4s-.33-.12-.33-.4c0-.11,0-.38,0-.38,0,0,0-.26,0-.37,0-.28.17-.4.33-.4s.33.12.33.4c0,.11,0,.31,0,.38h0ZM23.7,7.1c-.65,0-1.17.45-1.17,1s.53,1,1.17,1,1.17-.45,1.17-1-.53-1-1.17-1ZM9.63,6.87v-.55h.8v.55h-.8ZM9.63,8.99v-1.77h.8v1.77h-.8ZM13.66,8.99v-1.77s-.44,0-.44,0v-.26h.44s0-.36,0-.36h.8v.36h.43v.26h-.43v1.77s-.8,0-.8,0ZM6.37,8.99v-2.67h.83l1.15,1.86v-1.86s.82,0,.82,0v2.67h-.82l-1.16-1.86v1.86h-.83Z"/>
    </g>
    <g>
      <path id="path14" class="cls-39" d="M81.21,10.38s-.44.77-1.4.68c-1.13-.12-1.27-1.11-1.27-1.11,0,0-.15-.73.54-1.37.71-.59,1.44-.5,1.44-.5,0,0,.5.05.75.87.33,1.04-.06,1.44-.06,1.44h0ZM82.92,8.32c-.14-.43-.52-.84-.52-.84,0,0-.56-.73-1.67-.98-.95-.2-1.69.22-1.69.22,0,0-.68.27-1.18.83-.81.78-1.04,1.92-1.04,1.92,0,0-.31.99.18,1.77l.53.65c.75.63,1.56.69,1.56.69,0,0,.65.15,1.41-.05.66-.13,1.15-.46,1.15-.46,0,0,1.1-.61,1.4-1.85l-.12-1.9"/>
      <path id="path16" class="cls-45" d="M90.58,10.61c-1.22.73-1.99-.07-1.99-.07,0,0-.34-.22-.41-.9-.05-.79.73-1.2.73-1.2,0,0,.41-.25.93-.22.52.04.68,0,1.1.31.4.36.37.62.37.62,0,0,.14.89-.73,1.45h0ZM92.64,8.09c-.75-1.23-2.08-1.42-2.08-1.42,0,0-.42-.14-1.33-.02-1.7.32-2.29,1.63-2.29,1.63,0,0-.61.96-.37,2.11l.74,1.46c.55.51.77.51.81.54.72.33,1.56.14,1.56.14,0,0,1.06-.1,2.03-.86.78-.57,1.11-1.4,1.11-1.4l-.19-2.19"/>
      <path id="path18" class="cls-46" d="M94.47,8.37l-.08-1.12s.79-.02,1.12.04c.65.1.61.28.61.28,0,0-.02.23-.51.45-.53.26-1.13.35-1.13.35h0ZM92.83,10.28s.03.69-.08.86c-.15.31-.12.62-.12.62,0,0-.1.93.98,1.09.74,0,.83-.62.84-.88.04-.21.03-1.17.03-1.17l.96.78s.7.59,1.11.93c.43.34.53.4.53.4,0,0,.09.11.42.07.26,0,.5-.23.5-.23,0,0,.31-.22.38-.62.09-.47-.27-.69-.27-.69,0,0-1.34-1.08-2.24-1.82.61-.33.9-.56.9-.56,0,0,.84-.56,1.03-1.42.25-.94-.46-1.31-.46-1.31,0,0-.44-.32-.82-.49-.94-.46-1.82-.37-1.82-.37,0,0-1.25-.09-2.06.92-.37.49-.14,1.12-.14,1.12,0,0,.05.1.15.59.21.97.19,2.19.19,2.19"/>
      <path id="path20" class="cls-33" d="M86.58,10.4c-.36-.08-.94.07-.94.07,0,0-.81.3-.93.29-.05-.07-.15-1.39-.12-1.92.02-.93-.06-1.7-.06-1.7,0,0-.04-.9-.52-1.43-.57-.57-.96-.33-1.19-.19-.55.49-.29,1.09-.29,1.09l.28.81s.14.34.12.91l.12,1.9c0,.25.21,1.96.21,1.96,0,0,.02.56.56.65.55.09,1.09-.18,1.31-.29.23-.11.53-.2.53-.2,0,0,.25-.06.5-.08.59-.06.8-.16.8-.16,0,0,.23-.03.38-.25.15-.22.34-1.23-.74-1.46"/>
      <path id="path22" class="cls-22" d="M76.99,11.24c-.38-.11-.83-.04-.83-.04,0,0-1.25.12-1.9-.02-1.01-.18-.97-1.26-.97-1.26,0,0-.03-.72.57-1.69.75-1.2,1.58-1.42,1.58-1.42,0,0,.21-.08.4.03.12.7.8.69.8.69,0,0,.97.06.93-1.12-.11-.97-1.05-1.1-1.44-1.19-1.18-.21-1.94.42-1.94.42,0,0-.79.43-1.73,1.91-.64.92-.72,1.65-.72,1.65,0,0-.08.17-.05.94-.02.6.21,1.03.21,1.03,0,0,.34,1.03,1.42,1.45.65.27,1.61.27,1.61.27,0,0,.93-.01,1.64-.05.39.03.57-.17.57-.17,0,0,.43-.28.39-.78,0,0-.08-.51-.53-.65"/>
    </g>
    <text class="cls-16" transform="translate(106.34 12.17)"><tspan x="0" y="0">MODE</tspan><tspan class="cls-8" x="10.5" y="0">L</tspan><tspan x="12.57" y="0" xml:space="preserve"> NO.</tspan></text>
    <line class="cls-24" x1="4.25" y1="14.75" x2="151.65" y2="14.75"/>
    <text class="cls-15" transform="translate(129.09 12.16)"><tspan x="0" y="0">CBG-001</tspan></text>
    <text class="cls-11" transform="translate(4.57 22.52)"><tspan x="0" y="0">R</tspan><tspan class="cls-28" x="2.89" y="0">A</tspan><tspan x="5.48" y="0">TING </tspan><tspan class="cls-26" x="16.15" y="0" xml:space="preserve">    </tspan><tspan x="19.79" y="0">: DC3V 0.6W</tspan><tspan x="0" y="4.8">B</tspan><tspan class="cls-28" x="2.89" y="4.8">A</tspan><tspan x="5.48" y="4.8">TTE</tspan><tspan class="cls-49" x="13.04" y="4.8">R</tspan><tspan class="cls-40" x="15.78" y="4.8">Y</tspan><tspan x="18.37" y="4.8" xml:space="preserve"> : LR6 (AA)x2</tspan></text>
    <text class="cls-13" transform="translate(57.35 22.61)"><tspan class="cls-31" x="0" y="0">ⒸⓂ</tspan><tspan class="cls-29" x="7" y="0"> </tspan><tspan class="cls-18" x="7.97" y="0" xml:space="preserve">1998 Nintendo                   </tspan><tspan class="cls-31" x="50.37" y="0">Ⓒ</tspan><tspan class="cls-29" x="53.87" y="0"> </tspan><tspan class="cls-17" x="54.84" y="0">2026 0goki</tspan><tspan class="cls-18"><tspan x="0" y="4.2">Patents is issued and Pending. See booklet. </tspan></tspan></text>
    <text class="cls-16" transform="translate(4.37 65.2)"><tspan class="cls-7" x="0" y="0">REFURBISHED IN THE US</tspan><tspan class="cls-34" x="39.88" y="0">A</tspan></text>
    <g>
      <path class="cls-10" d="M149.72,28.75l-5.15.17-5.11-.15c-.63-.02-1.34-.22-1.47-.92-.11-.6-.12-1.19-.15-1.82-.05-1.35-.06-2.65,0-4,.02-.65.04-1.25.13-1.88.06-.38.29-.69.65-.82.22-.08.46-.15.71-.16l5.23-.18,5.11.16c.63.02,1.34.21,1.47.92.25,1.38.25,6.28.02,7.69-.06.41-.32.73-.71.84-.24.07-.47.13-.73.14ZM150.48,28.04c.12-.08.19-.29.21-.44.17-1.81.18-5.53-.01-7.32-.03-.26-.19-.47-.45-.52-.25-.05-.5-.09-.76-.1l-4.81-.14c-.82-.02-5.39.07-5.94.34-.14.07-.23.28-.25.43-.18,1.76-.19,5.66.01,7.39.03.23.18.43.41.48.27.06.55.1.84.1l4.78.14c.78.02,5.53-.06,5.99-.37Z"/>
      <path class="cls-10" d="M148.85,27.36l-3.11.13c-1.85.08-3.68,0-5.52-.14-.47-.03-.77-.38-.8-.81-.13-1.72-.14-3.43,0-5.15.05-.7.63-.85,1.23-.87l3.79-.11c1.46-.04,2.88.05,4.33.12.28.01.59.13.76.34s.19.46.21.73c.11,1.59.11,3.15,0,4.73-.02.25-.05.5-.2.69s-.42.32-.7.34ZM148.82,26.87c.25-.01.39-.19.4-.4.11-1.7.11-3.37,0-5.06-.01-.21-.18-.34-.39-.35-1.56-.08-3.1-.19-4.67-.13l-3.82.14c-.24,0-.41.15-.42.39-.11,1.67-.11,3.31,0,4.98.02.27.18.44.46.44l4.03.12c1.48.04,2.92-.06,4.41-.14Z"/>
      <path class="cls-10" d="M143.11,22.51c.22-.03.41-.03.64-.01l-1.75,3.11h-.88s0-3.11,0-3.11h.57s0,2.55,0,2.55l1.42-2.53Z"/>
      <rect class="cls-10" x="147.44" y="22.47" width=".56" height="3.13" transform="translate(-.03 .17) rotate(-.07)"/>
      <g>
        <path class="cls-10" d="M146.66,22.65c-.68-.38-1.5-.23-1.99.36s-.49,1.41,0,1.99,1.28.76,1.98.38l.26.43c-.87.52-1.99.29-2.63-.46s-.65-1.89,0-2.66,1.75-.97,2.64-.47l-.26.44Z"/>
        <path class="cls-10" d="M146.16,23.51c-.26-.1-.52-.07-.68.11-.19.2-.2.49-.05.7.16.22.43.29.71.18l.26.44c-.49.26-1.03.12-1.35-.26-.33-.4-.31-.97,0-1.34.33-.41.9-.52,1.36-.27l-.24.44Z"/>
      </g>
    </g>
    <text class="cls-12" transform="translate(4.25 34.1)"><tspan x="0" y="0">THIS</tspan><tspan class="cls-52" x="7.97" y="0"> </tspan><tspan x="8.79" y="0">DEVICE</tspan><tspan class="cls-52" x="21.82" y="0"> </tspan><tspan x="22.63" y="0">COMPLIES</tspan><tspan class="cls-37" x="40.72" y="0"> </tspan><tspan x="41.54" y="0">WITH</tspan><tspan class="cls-52" x="50.48" y="0"> </tspan><tspan class="cls-28" x="51.29" y="0">P</tspan><tspan x="53.37" y="0">A</tspan><tspan class="cls-8" x="55.7" y="0">RT</tspan><tspan class="cls-37" x="60.24" y="0"> </tspan><tspan x="61.06" y="0">15</tspan><tspan class="cls-52" x="64.95" y="0"> </tspan><tspan x="65.76" y="0">OF</tspan><tspan class="cls-51" x="70.62" y="0"> </tspan><tspan x="71.39" y="0">THE</tspan><tspan class="cls-52" x="78.38" y="0"> </tspan><tspan x="79.2" y="0">FCC</tspan><tspan class="cls-52" x="86.39" y="0"> </tspan><tspan x="87.21" y="0">RULES,</tspan><tspan class="cls-52" x="99.85" y="0"> </tspan><tspan x="100.67" y="0">OPER</tspan><tspan class="cls-28" x="110.58" y="0">A</tspan><tspan x="112.66" y="0">TION</tspan><tspan class="cls-43" x="121.02" y="0"> </tspan><tspan x="121.83" y="0">IS</tspan><tspan class="cls-52" x="125.14" y="0"> </tspan><tspan x="125.96" y="0">SUBJEC</tspan><tspan class="cls-8" x="139.76" y="0">T</tspan><tspan class="cls-51" x="141.84" y="0"> </tspan><tspan class="cls-1" x="142.6" y="0">T</tspan><tspan x="144.67" y="0">O </tspan><tspan x="0" y="4.2">THE</tspan><tspan class="cls-2" x="7" y="4.2"> </tspan><tspan x="8.97" y="4.2">FOLLOWING</tspan><tspan class="cls-48" x="29.97" y="4.2"> </tspan><tspan x="31.81" y="4.2">TWO</tspan><tspan class="cls-5" x="39.98" y="4.2"> </tspan><tspan x="41.95" y="4.2">CONDITIONS:</tspan><tspan class="cls-47" x="64.89" y="4.2"> </tspan><tspan class="cls-41" x="66.86" y="4.2">(1)</tspan><tspan class="cls-44" x="71.14" y="4.2"> </tspan><tspan x="72.98" y="4.2">THIS</tspan><tspan class="cls-47" x="80.96" y="4.2"> </tspan><tspan x="82.93" y="4.2">DEVICE</tspan><tspan class="cls-47" x="95.96" y="4.2"> </tspan><tspan x="97.93" y="4.2">M</tspan><tspan class="cls-28" x="100.84" y="4.2">A</tspan><tspan class="cls-1" x="102.92" y="4.2">Y</tspan><tspan class="cls-47" x="105.19" y="4.2"> </tspan><tspan x="107.16" y="4.2">NO</tspan><tspan class="cls-8" x="112.41" y="4.2">T</tspan><tspan class="cls-19" x="114.48" y="4.2"> </tspan><tspan x="116.46" y="4.2">CAUSE</tspan><tspan class="cls-47" x="128.51" y="4.2"> </tspan><tspan x="130.48" y="4.2">HARMFU</tspan><tspan class="cls-49" x="145.45" y="4.2">L</tspan><tspan x="147.27" y="4.2"> </tspan><tspan x="0" y="8.4">INTERFERENCE.</tspan><tspan class="cls-38" x="28.2" y="8.4"> </tspan><tspan class="cls-41" x="29.09" y="8.4">AND</tspan><tspan class="cls-50" x="36.48" y="8.4"> </tspan><tspan class="cls-41" x="37.6" y="8.4">(2)</tspan><tspan class="cls-35" x="41.88" y="8.4"> </tspan><tspan x="42.92" y="8.4">THIS</tspan><tspan class="cls-50" x="50.9" y="8.4"> </tspan><tspan x="52.01" y="8.4">DEVICE</tspan><tspan class="cls-50" x="65.04" y="8.4"> </tspan><tspan x="66.16" y="8.4">MUS</tspan><tspan class="cls-8" x="73.94" y="8.4">T</tspan><tspan class="cls-32" x="76.02" y="8.4"> </tspan><tspan x="76.91" y="8.4">ACCEP</tspan><tspan class="cls-8" x="88.97" y="8.4">T</tspan><tspan class="cls-27" x="91.04" y="8.4"> </tspan><tspan class="cls-42" x="91.94" y="8.4">AN</tspan><tspan class="cls-1" x="96.8" y="8.4">Y</tspan><tspan class="cls-20" x="99.07" y="8.4"> </tspan><tspan x="100.19" y="8.4">INTERFERENCE</tspan><tspan class="cls-30" x="127.41" y="8.4"> </tspan><tspan x="128.53" y="8.4">RECIEVED. </tspan><tspan x="0" y="12.6">INCLUDING</tspan><tspan class="cls-21" x="19.25" y="12.6"> </tspan><tspan x="24.45" y="12.6">INTERFERENCE</tspan><tspan class="cls-25" x="51.67" y="12.6"> </tspan><tspan x="56.53" y="12.6">TH</tspan><tspan class="cls-9" x="61.2" y="12.6">A</tspan><tspan class="cls-8" x="63.27" y="12.6">T</tspan><tspan class="cls-3" x="65.35" y="12.6"> </tspan><tspan x="70.55" y="12.6">M</tspan><tspan class="cls-28" x="73.46" y="12.6">A</tspan><tspan class="cls-8" x="75.54" y="12.6">Y</tspan><tspan class="cls-3" x="77.81" y="12.6"> </tspan><tspan x="83.01" y="12.6">CAUSE</tspan><tspan class="cls-21" x="95.06" y="12.6"> </tspan><tspan x="100.26" y="12.6">UNDESIRED</tspan><tspan class="cls-21" x="120.88" y="12.6"> </tspan><tspan x="126.07" y="12.6">OPER</tspan><tspan class="cls-28" x="135.99" y="12.6">A</tspan><tspan x="138.07" y="12.6">TION. </tspan><tspan x="0" y="16.8">THIS CLASS B DIGI</tspan><tspan class="cls-28" x="31.9" y="16.8">T</tspan><tspan x="33.77" y="16.8">A</tspan><tspan class="cls-49" x="36.11" y="16.8">L</tspan><tspan class="cls-6" x="37.92" y="16.8"> </tspan><tspan class="cls-41" x="38.7" y="16.8">AP</tspan><tspan class="cls-9" x="43.37" y="16.8">P</tspan><tspan class="cls-36" x="45.45" y="16.8">AR</tspan><tspan class="cls-9" x="50.31" y="16.8">A</tspan><tspan class="cls-36" x="52.38" y="16.8">TUS MEETS</tspan><tspan class="cls-6" x="72.41" y="16.8"> </tspan><tspan x="73.19" y="16.8">AL</tspan><tspan class="cls-49" x="77.47" y="16.8">L</tspan><tspan x="79.29" y="16.8" xml:space="preserve"> REQUIREMENTS OF</tspan><tspan class="cls-8" x="114.29" y="16.8"> </tspan><tspan x="115.2" y="16.8">THE CANADIAN </tspan><tspan x="0" y="21">INTERFERENCE CAUSING EQUIPMEN</tspan><tspan class="cls-8" x="63.78" y="21">T</tspan><tspan x="65.86" y="21" xml:space="preserve"> REGUL</tspan><tspan class="cls-28" x="78.89" y="21">A</tspan><tspan x="80.96" y="21">TIONS.</tspan></text>
    <text class="cls-14" transform="translate(51.57 64.95)"><tspan x="0" y="0">C/CBC-JPN-1-CPU-C</tspan></text>
  </g>
</svg>